%
M48
M72
T01C0.0150
T02C0.0197
T03C0.0236
T04C0.0320
T05C0.0354
T06C0.0360
T07C0.0400
T08C0.0433
T09C0.0472
T10C0.0512
T11C0.0630
T12C0.0900
T13C0.1280
T14C0.1300
T15C0.1340
%
T01
X5340Y4670
X4040Y6280
X5040Y6400
X3400Y7740
X5570Y9320
X5140Y9630
X5140Y10750
X6820Y10820
X8620Y11130
X9840Y11930
X9980Y13020
X9860Y13400
X9370Y13460
X9390Y13860
X9670Y14290
X10460Y14560
X11460Y14600
X12080Y14500
X12360Y13730
X11560Y13260
X11930Y13090
X12800Y12730
X13540Y13210
X14460Y12230
X15390Y12235
X16490Y11580
X17350Y12510
X17920Y13030
X18280Y13400
X17190Y13974
X15910Y13620
X13570Y15050
X14680Y15460
X15300Y15670
X15600Y16470
X16230Y16370
X16535Y16085
X17190Y16320
X17220Y15690
X16820Y15460
X19200Y16300
X20320Y16150
X20400Y15490
X22260Y15310
X22810Y16080
X21640Y17280
X21110Y18330
X21080Y19450
X22470Y20180
X21350Y21110
X20760Y21090
X22710Y21400
X24840Y22100
X25420Y22360
X26270Y22270
X27480Y21740
X27770Y20220
X29070Y18840
X30810Y19080
X31860Y19470
X31800Y20180
X31140Y20650
X31570Y20960
X31330Y21550
X34410Y22110
X35140Y22240
X36940Y21730
X36770Y20540
X35470Y19900
X35110Y19190
X34400Y19920
X33900Y19370
X32780Y19070
X32470Y18350
X31090Y17590
X29390Y17100
X28580Y16550
X28290Y15450
X27490Y14910
X28870Y14020
X28790Y12890
X27660Y12570
X26700Y12650
X24470Y12690
X28550Y10930
X29070Y10400
X30240Y10390
X31440Y11130
X33210Y11000
X33960Y11300
X33860Y10390
X35050Y10400
X36260Y10410
X36990Y10150
X36260Y9310
X35060Y9330
X33860Y9310
X32650Y9310
X31460Y9310
X30240Y9330
X29050Y9310
X27700Y9750
X25990Y8790
X25960Y8220
X23880Y7465
X23288Y6311
X21370Y8120
X18180Y10280
X19700Y10880
X19670Y11360
X12910Y11305
X11940Y11290
X8280Y12780
X6980Y13860
X6980Y14340
X6080Y14370
X6050Y13860
X5230Y13850
X5260Y14380
X5230Y14890
X5230Y15400
X5240Y15920
X6070Y15930
X6980Y15930
X6970Y15450
X6950Y14930
X6130Y14890
X6100Y15410
X7710Y16510
X10040Y16230
X11720Y15980
X13090Y17170
X15150Y17580
X16570Y17780
X18090Y17410
X18300Y17940
X18940Y18290
X17520Y19430
X24260Y17110
X25110Y17480
X25130Y16410
X24380Y18720
X25610Y19160
X24810Y19480
X30670Y16130
X32233Y16131
X33830Y16850
X34470Y16790
X33880Y17470
X35500Y17090
X35500Y16650
X35780Y16330
X35030Y15470
X34380Y15560
X34120Y14570
X35120Y14620
X36480Y15090
X36820Y14280
X38110Y13100
X38360Y12730
X37380Y11580
X35960Y12670
X36350Y12930
X35250Y12850
X33370Y12930
X32280Y12930
X31270Y12910
X30640Y13020
X29590Y12920
X32240Y14970
X38750Y18460
X39190Y20080
X41250Y21250
X39790Y22710
X38390Y24280
X37170Y24260
X36655Y23750
X36460Y25810
X37240Y26510
X34917Y25793
X34540Y26410
X31990Y26315
X31110Y26610
X27830Y26030
X27580Y26490
X25440Y26310
X24710Y26660
X21600Y26420
X21010Y25840
X19810Y26100
X19770Y26610
X17300Y26870
X17300Y26310
X22100Y23920
X27650Y23720
X28170Y23660
X28790Y24400
X30850Y24320
X31640Y24030
X41217Y25593
X41525Y26465
X42600Y25640
X43530Y25600
X49050Y24590
X50460Y23440
X53150Y25000
X53700Y24760
X53820Y23630
X57027Y26424
X58840Y25510
X60030Y24910
X60433Y26429
X53410Y26585
X45350Y29910
X44520Y30390
X43650Y29910
X42830Y30310
X41950Y29910
X41140Y30340
X40250Y29910
X39410Y30290
X38550Y29910
X37710Y30400
X36850Y29910
X36010Y30310
X35150Y29910
X34320Y30300
X33450Y29910
X32620Y30390
X31750Y29910
X30910Y30320
X30050Y29910
X29230Y30320
X28350Y29910
X27510Y30300
X26650Y29910
X25810Y30320
X24950Y29910
X24120Y30300
X23250Y29910
X22410Y30310
X21550Y29910
X20710Y30270
X19850Y29910
X19010Y30200
X18150Y29910
X17310Y30290
X16450Y29910
X15610Y30230
X14750Y29910
X13910Y30240
X13050Y29910
X12220Y30230
X5910Y21600
X10160Y19100
X8400Y18220
X7010Y18640
X7850Y14480
X6040Y13210
X3550Y13510
X10880Y13450
X7400Y9400
X42010Y19080
X41930Y19580
X45520Y19540
X47175Y21250
X48400Y20450
X50110Y19650
X55260Y18790
X45940Y15970
X45900Y15250
X50520Y12660
X53950Y13050
X51060Y10060
X53680Y6700
X51290Y4590
X51080Y3360
X51660Y1590
X53640Y1350
T02
X30000Y17560
X19230Y20180
T03
X8160Y30370
T04
X44590Y22340
X45590Y22340
X45590Y17840
X44590Y17840
X44590Y13340
X45590Y13340
T05
X14235Y7910
X13235Y7910
X12235Y7910
X11235Y7910
X10735Y6910
X11735Y6910
X12735Y6910
X13735Y6910
T06
X54810Y31551
X55790Y31551
X55790Y32811
X54810Y32811
T07
X2240Y3280
X2340Y4280
X2240Y5280
X2340Y6280
X2240Y7280
X2340Y8280
X10335Y9810
X11335Y9810
X13635Y9810
X14635Y9810
X18400Y5160
X19540Y5160
X24720Y14730
X25720Y14730
X26720Y14730
X26720Y15730
X25720Y15730
X24720Y15730
X26310Y17840
X27310Y17840
X28310Y17840
X28310Y18840
X27310Y18840
X26310Y18840
X29250Y21560
X30250Y21560
X30250Y22560
X29250Y22560
X29250Y23560
X30250Y23560
X51330Y30450
X51330Y31590
T08
X2500Y23670
X2500Y22670
X2500Y21670
X2500Y20670
X2500Y15480
X2500Y14480
X2500Y13480
X2500Y12480
X2500Y11480
T09
X17180Y3110
X18698Y3110
X21010Y3120
X22458Y3120
X23906Y3120
X26250Y3110
X27628Y3110
X29006Y3110
X30384Y3110
X31762Y3110
X33140Y3110
X34518Y3110
X35896Y3110
X37274Y3110
X39720Y3120
X41098Y3120
X42476Y3120
X43854Y3120
X45232Y3120
X46610Y3120
X44027Y32445
X42649Y32445
X41271Y32445
X39893Y32445
X38515Y32445
X37138Y32445
X35760Y32445
X34382Y32445
X33004Y32445
X31626Y32445
X30248Y32445
X28870Y32445
X27515Y32445
X26138Y32445
X24760Y32445
X23382Y32445
X22004Y32445
X20626Y32445
X19248Y32445
X17870Y32445
X16492Y32445
X15114Y32445
X13736Y32445
T10
X8999Y31200
X7030Y31200
T11
X9435Y5610
X15535Y5610
T12
X52950Y32611
X57690Y32611
T13
X14735Y4410
X10235Y4410
T14
X3890Y3496
X3890Y31846
X60189Y31846
X60189Y3500
T15
X2800Y9880
X2800Y17080
X2800Y19070
X2800Y25270
M30
