G75*
%MOIN*%
%OFA0B0*%
%FSLAX24Y24*%
%IPPOS*%
%LPD*%
%AMOC8*
5,1,8,0,0,1.08239X$1,22.5*
%
%ADD10R,0.0591X0.0197*%
%ADD11R,0.0197X0.0591*%
%ADD12R,0.0433X0.0394*%
%ADD13R,0.0394X0.0433*%
%ADD14R,0.0531X0.0472*%
%ADD15R,0.0748X0.0433*%
%ADD16R,0.0315X0.0315*%
%ADD17R,0.0137X0.0550*%
%ADD18R,0.0472X0.0984*%
%ADD19R,0.0236X0.0866*%
%ADD20R,0.0256X0.0315*%
%ADD21R,0.0197X0.0315*%
%ADD22R,0.0240X0.0870*%
%ADD23R,0.0740X0.0770*%
%ADD24R,0.0770X0.0740*%
%ADD25R,0.0394X0.0551*%
%ADD26R,0.2126X0.2441*%
%ADD27R,0.0394X0.0630*%
%ADD28R,0.0098X0.0472*%
%ADD29R,0.0472X0.0098*%
%ADD30R,0.0394X0.0236*%
%ADD31R,0.0425X0.0413*%
%ADD32R,0.0413X0.0425*%
%ADD33R,0.0591X0.0787*%
%ADD34R,0.0138X0.0472*%
%ADD35R,0.0551X0.1181*%
%ADD36R,0.0600X0.0300*%
%ADD37R,0.0197X0.0512*%
%ADD38R,0.0551X0.1496*%
%ADD39R,0.1000X0.1000*%
%ADD40R,0.0709X0.1260*%
%ADD41R,0.1496X0.0551*%
%ADD42R,0.0200X0.0500*%
%ADD43R,0.0701X0.0610*%
%ADD44R,0.0260X0.0800*%
%ADD45R,0.0315X0.0256*%
%ADD46R,0.0315X0.0197*%
%ADD47R,0.0327X0.0248*%
%ADD48R,0.0630X0.0866*%
%ADD49R,0.0591X0.1811*%
%ADD50R,0.0500X0.0579*%
%ADD51R,0.0236X0.0217*%
D10*
X032977Y014325D03*
X032977Y014640D03*
X032977Y014955D03*
X032977Y015270D03*
X032977Y015585D03*
X032977Y015900D03*
X032977Y016215D03*
X032977Y016530D03*
X032977Y016845D03*
X032977Y017160D03*
X032977Y017475D03*
X037543Y017475D03*
X037543Y017160D03*
X037543Y016845D03*
X037543Y016530D03*
X037543Y016215D03*
X037543Y015900D03*
X037543Y015585D03*
X037543Y015270D03*
X037543Y014955D03*
X037543Y014640D03*
X037543Y014325D03*
D11*
X036835Y013617D03*
X036520Y013617D03*
X036205Y013617D03*
X035890Y013617D03*
X035575Y013617D03*
X035260Y013617D03*
X034945Y013617D03*
X034630Y013617D03*
X034315Y013617D03*
X034000Y013617D03*
X033685Y013617D03*
X033685Y018183D03*
X034000Y018183D03*
X034315Y018183D03*
X034630Y018183D03*
X034945Y018183D03*
X035260Y018183D03*
X035575Y018183D03*
X035890Y018183D03*
X036205Y018183D03*
X036520Y018183D03*
X036835Y018183D03*
D12*
X036245Y019180D03*
X035575Y019180D03*
X035475Y020540D03*
X036145Y020540D03*
X036735Y021290D03*
X037405Y021290D03*
X030095Y024490D03*
X029425Y024490D03*
X028435Y021270D03*
X027765Y021270D03*
X024095Y020530D03*
X023426Y020530D03*
X022965Y018570D03*
X022295Y018570D03*
X029375Y016110D03*
X030045Y016110D03*
X031075Y016920D03*
X031745Y016920D03*
X031575Y016120D03*
X032245Y016120D03*
X038505Y016060D03*
X039175Y016060D03*
X039395Y015420D03*
X038725Y015420D03*
X040235Y011140D03*
X040905Y011140D03*
X040125Y006254D03*
X039455Y006254D03*
X051885Y004940D03*
X052555Y004940D03*
X022965Y006490D03*
X022295Y006490D03*
X020925Y006430D03*
X020255Y006430D03*
X019405Y006420D03*
X018735Y006420D03*
X017565Y005190D03*
X016895Y005190D03*
X021365Y007490D03*
X022035Y007490D03*
X016780Y009155D03*
X016780Y009825D03*
X012910Y010635D03*
X012910Y011305D03*
X011940Y011305D03*
X011940Y010635D03*
X011387Y011918D03*
X010717Y011918D03*
X008090Y012065D03*
X008090Y011395D03*
X008790Y008935D03*
X008790Y008265D03*
X014420Y012235D03*
X014420Y012905D03*
X015390Y012905D03*
X015390Y012235D03*
X008430Y016885D03*
X008430Y017555D03*
X007750Y017545D03*
X007750Y018215D03*
X009365Y017930D03*
X010035Y017930D03*
X010685Y017930D03*
X011355Y017930D03*
X012005Y023880D03*
X012675Y023880D03*
X013300Y024845D03*
X013300Y025515D03*
X013300Y026225D03*
X013300Y026895D03*
X012935Y027910D03*
X012266Y027910D03*
X013716Y027910D03*
X014385Y027910D03*
X015466Y027910D03*
X016135Y027910D03*
X017112Y027909D03*
X017781Y027909D03*
X019116Y027910D03*
X019785Y027910D03*
X020666Y027910D03*
X021335Y027910D03*
X022066Y027910D03*
X022735Y027910D03*
X023866Y027910D03*
X024535Y027910D03*
X025466Y027910D03*
X026135Y027910D03*
X027166Y027910D03*
X027835Y027910D03*
X028816Y027910D03*
X029485Y027910D03*
X030706Y027917D03*
X031375Y027917D03*
X032366Y027910D03*
X033035Y027910D03*
X034009Y027915D03*
X034678Y027915D03*
X035812Y027912D03*
X036481Y027912D03*
X037308Y027902D03*
X037977Y027902D03*
X039175Y027904D03*
X039844Y027904D03*
X040915Y027894D03*
X041584Y027894D03*
X042595Y027900D03*
X043264Y027900D03*
X044119Y027900D03*
X044788Y027900D03*
X004355Y027090D03*
X003685Y027090D03*
D13*
X006090Y027085D03*
X006090Y027755D03*
X011394Y032030D03*
X012064Y032030D03*
X006860Y022305D03*
X006860Y021635D03*
X004620Y020535D03*
X004620Y019865D03*
X006280Y018435D03*
X006280Y017765D03*
X007225Y019580D03*
X007895Y019580D03*
X013875Y017390D03*
X014545Y017390D03*
X014425Y014070D03*
X013755Y014070D03*
X008590Y010485D03*
X008590Y009815D03*
X023880Y007465D03*
X023880Y006795D03*
X026610Y008685D03*
X026610Y009355D03*
X026010Y010365D03*
X026010Y011035D03*
X029050Y008245D03*
X029050Y007575D03*
X030250Y007575D03*
X030250Y008245D03*
X031450Y008245D03*
X032650Y008245D03*
X032650Y007575D03*
X031450Y007575D03*
X033850Y007575D03*
X033850Y008245D03*
X035050Y008245D03*
X035050Y007575D03*
X036250Y007575D03*
X036250Y008245D03*
X037450Y008245D03*
X037450Y007575D03*
X041560Y010135D03*
X041560Y010805D03*
X042360Y010805D03*
X043150Y010805D03*
X043950Y010805D03*
X044750Y010805D03*
X044750Y010135D03*
X043950Y010135D03*
X043150Y010135D03*
X042360Y010135D03*
X045550Y010135D03*
X046350Y010135D03*
X047140Y010135D03*
X047140Y010805D03*
X046350Y010805D03*
X045550Y010805D03*
X039200Y014055D03*
X039200Y014725D03*
X035280Y012875D03*
X035280Y012205D03*
X031420Y014595D03*
X031420Y015265D03*
X032810Y019755D03*
X032810Y020425D03*
X038230Y024555D03*
X038230Y025225D03*
X050780Y026155D03*
X050780Y026825D03*
X053900Y026635D03*
X054640Y026634D03*
X055390Y026635D03*
X055390Y027305D03*
X054640Y027304D03*
X053900Y027305D03*
X054650Y027985D03*
X054650Y028655D03*
X057550Y027105D03*
X057550Y026435D03*
X059820Y026435D03*
X059820Y027105D03*
X052555Y004160D03*
X051885Y004160D03*
X051895Y003350D03*
X052565Y003350D03*
X052575Y002580D03*
X051905Y002580D03*
D14*
X039290Y011140D03*
X037971Y011140D03*
X037981Y012110D03*
X039300Y012110D03*
X026619Y005210D03*
X025300Y005210D03*
X018570Y020520D03*
X017251Y020520D03*
X008109Y027970D03*
X006790Y027970D03*
D15*
X029102Y015553D03*
X029102Y014647D03*
X030558Y014647D03*
X030558Y015553D03*
X010878Y011393D03*
X009422Y011393D03*
X009422Y010487D03*
X010878Y010487D03*
D16*
X013060Y028861D03*
X013060Y029451D03*
X014760Y029451D03*
X014760Y028861D03*
X016460Y028861D03*
X016460Y029451D03*
X018160Y029451D03*
X018160Y028861D03*
X019860Y028861D03*
X019860Y029451D03*
X021560Y029451D03*
X021560Y028861D03*
X023260Y028865D03*
X023260Y029455D03*
X024960Y029455D03*
X024960Y028865D03*
X026660Y028865D03*
X026660Y029455D03*
X028360Y029455D03*
X028360Y028865D03*
X030060Y028865D03*
X030060Y029455D03*
X031760Y029455D03*
X031760Y028865D03*
X033460Y028865D03*
X033460Y029455D03*
X035160Y029455D03*
X035160Y028865D03*
X036860Y028865D03*
X036860Y029455D03*
X038560Y029455D03*
X038560Y028865D03*
X040259Y028865D03*
X040259Y029455D03*
X041970Y029455D03*
X041970Y028865D03*
X043681Y028865D03*
X043681Y029455D03*
X045342Y029455D03*
X045342Y028865D03*
X058400Y029675D03*
X059300Y029675D03*
X059300Y030265D03*
X058400Y030265D03*
X054045Y004940D03*
X053455Y004940D03*
X053455Y004160D03*
X054045Y004160D03*
X054045Y003340D03*
X053455Y003340D03*
X053455Y002600D03*
X054045Y002600D03*
X011994Y032910D03*
X011404Y032910D03*
D17*
X052547Y025789D03*
X052803Y025789D03*
X053058Y025789D03*
X053314Y025789D03*
X053570Y025789D03*
X053826Y025789D03*
X054082Y025789D03*
X054338Y025789D03*
X054594Y025789D03*
X054850Y025789D03*
X055106Y025789D03*
X055362Y025789D03*
X055617Y025789D03*
X055873Y025789D03*
X055873Y022911D03*
X055617Y022911D03*
X055362Y022911D03*
X055106Y022911D03*
X054850Y022911D03*
X054594Y022911D03*
X054338Y022911D03*
X054082Y022911D03*
X053826Y022911D03*
X053570Y022911D03*
X053314Y022911D03*
X053058Y022911D03*
X052803Y022911D03*
X052547Y022911D03*
D18*
X053489Y021793D03*
X054789Y021793D03*
D19*
X020730Y009534D03*
X020230Y009534D03*
X019730Y009534D03*
X019230Y009534D03*
X019230Y007486D03*
X019730Y007486D03*
X020230Y007486D03*
X020730Y007486D03*
X012350Y024686D03*
X011850Y024686D03*
X011350Y024686D03*
X010850Y024686D03*
X010850Y026734D03*
X011350Y026734D03*
X011850Y026734D03*
X012350Y026734D03*
D20*
X017938Y026905D03*
X017938Y026315D03*
X018962Y026315D03*
X018962Y026905D03*
X022438Y026905D03*
X022438Y026315D03*
X023462Y026315D03*
X023462Y026905D03*
X028438Y026905D03*
X029462Y026905D03*
X029462Y026315D03*
X028438Y026315D03*
X035438Y026315D03*
X036462Y026315D03*
X036462Y026905D03*
X035438Y026905D03*
X041938Y026905D03*
X041938Y026315D03*
X042962Y026315D03*
X042962Y026905D03*
X035662Y006705D03*
X035662Y006115D03*
X034638Y006115D03*
X034638Y006705D03*
X030362Y006705D03*
X030362Y006115D03*
X029338Y006115D03*
X029338Y006705D03*
D21*
X029693Y006705D03*
X030007Y006705D03*
X030007Y006115D03*
X029693Y006115D03*
X034993Y006115D03*
X035307Y006115D03*
X035307Y006705D03*
X034993Y006705D03*
X035793Y026315D03*
X036108Y026315D03*
X036108Y026905D03*
X035793Y026905D03*
X042293Y026905D03*
X042608Y026905D03*
X042608Y026315D03*
X042293Y026315D03*
X029108Y026315D03*
X028793Y026315D03*
X028793Y026905D03*
X029108Y026905D03*
X023108Y026905D03*
X022793Y026905D03*
X022793Y026315D03*
X023108Y026315D03*
X018608Y026315D03*
X018293Y026315D03*
X018293Y026905D03*
X018608Y026905D03*
D22*
X018970Y017450D03*
X019470Y017450D03*
X019970Y017450D03*
X020470Y017450D03*
X020470Y014515D03*
X019970Y014515D03*
X019470Y014515D03*
X018970Y014515D03*
X024480Y009540D03*
X024980Y009540D03*
X025480Y009540D03*
X025980Y009540D03*
X025980Y007480D03*
X025480Y007480D03*
X024980Y007480D03*
X024480Y007480D03*
D23*
X023140Y009905D03*
D24*
X024015Y010570D03*
D25*
X006154Y019667D03*
X005406Y019667D03*
X005780Y020533D03*
D26*
X006110Y014886D03*
D27*
X005212Y017760D03*
X007008Y017760D03*
D28*
X009194Y017034D03*
X009390Y017034D03*
X009587Y017034D03*
X009784Y017034D03*
X009981Y017034D03*
X010178Y017034D03*
X010375Y017034D03*
X010572Y017034D03*
X010768Y017034D03*
X010965Y017034D03*
X011162Y017034D03*
X011359Y017034D03*
X011556Y017034D03*
X011753Y017034D03*
X011950Y017034D03*
X012146Y017034D03*
X012146Y012546D03*
X011950Y012546D03*
X011753Y012546D03*
X011556Y012546D03*
X011359Y012546D03*
X011162Y012546D03*
X010965Y012546D03*
X010768Y012546D03*
X010572Y012546D03*
X010375Y012546D03*
X010178Y012546D03*
X009981Y012546D03*
X009784Y012546D03*
X009587Y012546D03*
X009390Y012546D03*
X009194Y012546D03*
D29*
X008426Y013314D03*
X008426Y013510D03*
X008426Y013707D03*
X008426Y013904D03*
X008426Y014101D03*
X008426Y014298D03*
X008426Y014495D03*
X008426Y014692D03*
X008426Y014888D03*
X008426Y015085D03*
X008426Y015282D03*
X008426Y015479D03*
X008426Y015676D03*
X008426Y015873D03*
X008426Y016070D03*
X008426Y016266D03*
X012914Y016266D03*
X012914Y016070D03*
X012914Y015873D03*
X012914Y015676D03*
X012914Y015479D03*
X012914Y015282D03*
X012914Y015085D03*
X012914Y014888D03*
X012914Y014692D03*
X012914Y014495D03*
X012914Y014298D03*
X012914Y014101D03*
X012914Y013904D03*
X012914Y013707D03*
X012914Y013510D03*
X012914Y013314D03*
D30*
X016553Y018256D03*
X016561Y018626D03*
X016557Y019004D03*
X017655Y018996D03*
X017647Y018630D03*
X017647Y018256D03*
D31*
X018970Y018296D03*
X018970Y018984D03*
X017190Y013974D03*
X017190Y013286D03*
X016060Y012924D03*
X016060Y012236D03*
X007870Y013806D03*
X007870Y014494D03*
X007730Y015316D03*
X007730Y016004D03*
X004480Y017066D03*
X004480Y017754D03*
D32*
X013586Y015060D03*
X014274Y015060D03*
X013504Y012740D03*
X013504Y012170D03*
X012816Y012170D03*
X012816Y012740D03*
X013566Y011400D03*
X014254Y011400D03*
X009844Y011930D03*
X009156Y011930D03*
X015866Y017760D03*
X016554Y017760D03*
X019916Y020190D03*
X020604Y020190D03*
D33*
X006629Y008350D03*
X007811Y008350D03*
D34*
X016416Y014588D03*
X016672Y014588D03*
X016928Y014588D03*
X017184Y014588D03*
X017184Y016892D03*
X016928Y016892D03*
X016672Y016892D03*
X016416Y016892D03*
D35*
X006040Y012265D03*
X006040Y010375D03*
D36*
X056540Y006350D03*
X058540Y006350D03*
X058540Y004850D03*
X056540Y004850D03*
X056560Y003310D03*
X058560Y003310D03*
X058560Y001810D03*
X056560Y001810D03*
D37*
X044890Y028589D03*
X044516Y028589D03*
X044142Y028589D03*
X043197Y028589D03*
X042823Y028589D03*
X042449Y028589D03*
X041490Y028589D03*
X041116Y028589D03*
X040742Y028589D03*
X039784Y028589D03*
X039410Y028589D03*
X039036Y028589D03*
X038084Y028589D03*
X037710Y028589D03*
X037336Y028589D03*
X036384Y028589D03*
X036010Y028589D03*
X035636Y028589D03*
X034684Y028589D03*
X034310Y028589D03*
X033936Y028589D03*
X032984Y028589D03*
X032610Y028589D03*
X032236Y028589D03*
X031284Y028589D03*
X030910Y028589D03*
X030536Y028589D03*
X029584Y028589D03*
X029210Y028589D03*
X028836Y028589D03*
X027884Y028589D03*
X027510Y028589D03*
X027136Y028589D03*
X026184Y028589D03*
X025810Y028589D03*
X025436Y028589D03*
X024484Y028589D03*
X024110Y028589D03*
X023736Y028589D03*
X022784Y028589D03*
X022410Y028589D03*
X022036Y028589D03*
X021084Y028589D03*
X020710Y028589D03*
X020336Y028589D03*
X019384Y028589D03*
X019010Y028589D03*
X018636Y028589D03*
X017684Y028589D03*
X017310Y028589D03*
X016936Y028589D03*
X015984Y028589D03*
X015610Y028589D03*
X015236Y028589D03*
X014284Y028589D03*
X013910Y028589D03*
X013536Y028589D03*
X012584Y028589D03*
X012210Y028589D03*
X011836Y028589D03*
X011836Y029731D03*
X012210Y029731D03*
X012584Y029731D03*
X013536Y029731D03*
X013910Y029731D03*
X014284Y029731D03*
X015236Y029731D03*
X015610Y029731D03*
X015984Y029731D03*
X016936Y029731D03*
X017310Y029731D03*
X017684Y029731D03*
X018636Y029731D03*
X019010Y029731D03*
X019384Y029731D03*
X020336Y029731D03*
X020710Y029731D03*
X021084Y029731D03*
X022036Y029731D03*
X022410Y029731D03*
X022784Y029731D03*
X023736Y029731D03*
X024110Y029731D03*
X024484Y029731D03*
X025436Y029731D03*
X025810Y029731D03*
X026184Y029731D03*
X027136Y029731D03*
X027510Y029731D03*
X027884Y029731D03*
X028836Y029731D03*
X029210Y029731D03*
X029584Y029731D03*
X030536Y029731D03*
X030910Y029731D03*
X031284Y029731D03*
X032236Y029731D03*
X032610Y029731D03*
X032984Y029731D03*
X033936Y029731D03*
X034310Y029731D03*
X034684Y029731D03*
X035636Y029731D03*
X036010Y029731D03*
X036384Y029731D03*
X037336Y029731D03*
X037710Y029731D03*
X038084Y029731D03*
X039036Y029731D03*
X039410Y029731D03*
X039784Y029731D03*
X040742Y029731D03*
X041116Y029731D03*
X041490Y029731D03*
X042449Y029731D03*
X042823Y029731D03*
X043197Y029731D03*
X044142Y029731D03*
X044516Y029731D03*
X044890Y029731D03*
D38*
X019520Y023801D03*
X016110Y023801D03*
X016110Y021439D03*
X019520Y021439D03*
D39*
X010195Y021520D03*
X008345Y021520D03*
D40*
X007858Y022930D03*
X010062Y022930D03*
D41*
X009751Y025330D03*
X007389Y025330D03*
D42*
X022270Y017840D03*
X022640Y017840D03*
X023010Y017840D03*
X023010Y016860D03*
X022270Y016860D03*
D43*
X005910Y022192D03*
X004910Y022192D03*
X004910Y025948D03*
X005910Y025948D03*
D44*
X023600Y023820D03*
X024100Y023820D03*
X024600Y023820D03*
X025100Y023820D03*
X025600Y023820D03*
X026100Y023820D03*
X026600Y023820D03*
X027100Y023820D03*
X027100Y021400D03*
X026600Y021400D03*
X026100Y021400D03*
X025600Y021400D03*
X025100Y021400D03*
X024600Y021400D03*
X024100Y021400D03*
X023600Y021400D03*
X032400Y021400D03*
X032900Y021400D03*
X033400Y021400D03*
X033900Y021400D03*
X034400Y021400D03*
X034900Y021400D03*
X035400Y021400D03*
X035900Y021400D03*
X035900Y023820D03*
X035400Y023820D03*
X034900Y023820D03*
X034400Y023820D03*
X033900Y023820D03*
X033400Y023820D03*
X032900Y023820D03*
X032400Y023820D03*
D45*
X031645Y023122D03*
X031055Y023122D03*
X031055Y022098D03*
X031645Y022098D03*
X028445Y022098D03*
X027855Y022098D03*
X027855Y023122D03*
X028445Y023122D03*
X022845Y023122D03*
X022255Y023122D03*
X022255Y022098D03*
X022845Y022098D03*
X036655Y022098D03*
X037245Y022098D03*
X037245Y023122D03*
X036655Y023122D03*
D46*
X036655Y022767D03*
X036655Y022453D03*
X037245Y022453D03*
X037245Y022767D03*
X031645Y022767D03*
X031645Y022453D03*
X031055Y022453D03*
X031055Y022767D03*
X028445Y022767D03*
X028445Y022453D03*
X027855Y022453D03*
X027855Y022767D03*
X022845Y022767D03*
X022845Y022453D03*
X022255Y022453D03*
X022255Y022767D03*
D47*
X029050Y009763D03*
X029050Y008857D03*
X030250Y008857D03*
X030250Y009763D03*
X031450Y009763D03*
X032650Y009763D03*
X032650Y008857D03*
X031450Y008857D03*
X033850Y008857D03*
X033850Y009763D03*
X035050Y009763D03*
X035050Y008857D03*
X036250Y008857D03*
X036250Y009763D03*
X037450Y009763D03*
X037450Y008857D03*
D48*
X013950Y022030D03*
X011430Y022030D03*
D49*
X011003Y028649D03*
X009074Y028649D03*
D50*
X008300Y029038D03*
X006608Y029038D03*
D51*
X001556Y009594D03*
X001044Y009594D03*
X001300Y008866D03*
M02*
