G75*
%MOIN*%
%OFA0B0*%
%FSLAX24Y24*%
%IPPOS*%
%LPD*%
%AMOC8*
5,1,8,0,0,1.08239X$1,22.5*
%
%ADD10C,0.0557*%
%ADD11R,0.0557X0.0557*%
%ADD12OC8,0.0557*%
%ADD13C,0.0740*%
%ADD14C,0.0591*%
%ADD15R,0.0591X0.0591*%
%ADD16C,0.0551*%
%ADD17R,0.0800X0.0800*%
%ADD18C,0.0800*%
%ADD19C,0.0700*%
%ADD20C,0.0760*%
%ADD21C,0.0669*%
%ADD22C,0.0320*%
%ADD23C,0.0240*%
%ADD24C,0.0120*%
%ADD25C,0.0160*%
%ADD26C,0.0354*%
%ADD27C,0.0268*%
%ADD28C,0.0368*%
%ADD29C,0.0100*%
D10*
X011850Y009610D03*
X012850Y009610D03*
X013850Y009610D03*
X014850Y009610D03*
X015850Y009610D03*
X016850Y009610D03*
X017850Y009610D03*
X018850Y009610D03*
X019850Y009610D03*
X020850Y009610D03*
X021850Y009610D03*
X022850Y009610D03*
X023850Y009610D03*
X024850Y009610D03*
X025850Y009610D03*
X026850Y009610D03*
D11*
X014430Y007440D03*
D12*
X015430Y007440D03*
X016430Y007440D03*
X016430Y008440D03*
X015430Y008440D03*
X014430Y008440D03*
D13*
X028220Y008460D03*
X028220Y007460D03*
X028220Y006460D03*
X028220Y005460D03*
X028220Y004460D03*
X028310Y002760D03*
X028310Y001620D03*
X028220Y009460D03*
D14*
X018810Y001620D03*
X017810Y001620D03*
X016810Y001620D03*
X015810Y001620D03*
X009980Y001620D03*
X008980Y001620D03*
X007980Y001620D03*
X006980Y001620D03*
D15*
X010980Y001620D03*
X019810Y001620D03*
D16*
X003840Y001424D02*
X003840Y001976D01*
X002840Y001976D02*
X002840Y001424D01*
D17*
X023410Y002210D03*
D18*
X024858Y002210D03*
X026306Y002210D03*
D19*
X007830Y005790D03*
X006830Y005790D03*
X005830Y005790D03*
X006830Y006790D03*
X007830Y006790D03*
D20*
X005830Y006790D03*
D21*
X002301Y005529D03*
X002301Y004151D03*
X002331Y008651D03*
X002331Y010029D03*
D22*
X010540Y009700D02*
X010540Y006760D01*
X010945Y006355D01*
X011315Y006355D01*
X012150Y006365D01*
X012720Y006365D01*
X013550Y006365D01*
X016450Y006365D01*
X016760Y006055D01*
X021455Y006055D01*
X021480Y006050D01*
X025850Y008990D02*
X027275Y007565D01*
X027370Y007470D01*
X028280Y007470D01*
X028220Y007460D01*
X025850Y008990D02*
X025850Y009060D01*
X025850Y009610D01*
X025850Y010040D01*
X025510Y010380D01*
X011220Y010380D01*
X010540Y009700D01*
D23*
X013750Y007760D02*
X014430Y008440D01*
X013750Y007760D02*
X013750Y006930D01*
X013185Y006365D01*
X012720Y006365D01*
X012150Y006365D02*
X012150Y006460D01*
X012900Y007210D01*
X013210Y007220D01*
X026750Y004370D02*
X027275Y004895D01*
X027275Y007565D01*
D24*
X025857Y008617D02*
X025340Y008100D01*
X023640Y008100D01*
X023300Y007760D01*
X023850Y008610D02*
X021280Y008610D01*
X020350Y007680D01*
X018970Y007680D01*
X018380Y008270D01*
X017520Y008270D01*
X018000Y009120D02*
X019030Y008090D01*
X019760Y008090D01*
X018470Y007440D02*
X019310Y006600D01*
X018510Y006680D02*
X014880Y006680D01*
X014760Y006830D01*
X014230Y006000D02*
X013865Y006365D01*
X013550Y006365D01*
X014230Y006000D02*
X014230Y005840D01*
X015080Y004990D01*
X015120Y005510D02*
X017870Y005510D01*
X018170Y005210D01*
X018890Y004660D02*
X019660Y005430D01*
X020860Y005430D01*
X021480Y006050D01*
X018890Y004660D02*
X018890Y003180D01*
X019250Y002820D01*
X019580Y002820D01*
X019840Y003080D01*
X021140Y003080D01*
X021890Y003830D01*
X022190Y003830D01*
X018810Y002730D02*
X018810Y001620D01*
X018810Y002730D02*
X018190Y003350D01*
X011710Y003350D01*
X009980Y001620D01*
X014430Y007440D02*
X014930Y007940D01*
X014930Y008760D01*
X014730Y008960D01*
X011510Y008960D01*
X011030Y009440D01*
X015850Y009610D02*
X016340Y009120D01*
X018000Y009120D01*
X018470Y007440D02*
X016430Y007440D01*
X023850Y008610D02*
X024850Y009610D01*
X025850Y009060D02*
X025850Y008850D01*
X025857Y008843D01*
X025857Y008617D01*
D25*
X010540Y009700D02*
X010050Y010190D01*
X008690Y010190D01*
X001210Y005560D02*
X001210Y003740D01*
X001660Y003290D01*
D26*
X010540Y006760D03*
D27*
X012310Y007170D03*
X012840Y007570D03*
X014760Y006830D03*
X016450Y006365D03*
X015120Y005510D03*
X015080Y004990D03*
X015210Y004390D03*
X015570Y004070D03*
X015230Y003760D03*
X018190Y004570D03*
X018170Y005210D03*
X019760Y004390D03*
X020430Y003890D03*
X019490Y003300D03*
X022190Y003830D03*
X026750Y004370D03*
X025470Y005750D03*
X024470Y005750D03*
X023520Y006410D03*
X021480Y006050D03*
X019310Y006600D03*
X018510Y006680D03*
X019760Y008090D03*
X017520Y008270D03*
X023300Y007760D03*
X011030Y009440D03*
X009900Y009120D03*
X008690Y010190D03*
X005540Y010440D03*
X006770Y008210D03*
X001210Y005560D03*
X001660Y003290D03*
X008840Y005170D03*
D28*
X013210Y007220D03*
D29*
X000398Y010832D02*
X000398Y000408D01*
X029082Y000408D01*
X029082Y010822D01*
X000398Y010832D01*
X000398Y010768D02*
X029082Y010768D01*
X029082Y010670D02*
X025569Y010670D01*
X025568Y010670D02*
X011162Y010670D01*
X011056Y010626D01*
X010974Y010544D01*
X010483Y010054D01*
X010137Y010400D01*
X008853Y010400D01*
X008840Y010414D01*
X008743Y010454D01*
X008637Y010454D01*
X008540Y010414D01*
X008466Y010340D01*
X008426Y010243D01*
X008426Y010137D01*
X008466Y010040D01*
X008540Y009966D01*
X008637Y009926D01*
X008743Y009926D01*
X008840Y009966D01*
X008853Y009980D01*
X009963Y009980D01*
X010250Y009693D01*
X010250Y006863D01*
X010233Y006821D01*
X010233Y006699D01*
X010280Y006586D01*
X010366Y006500D01*
X010407Y006482D01*
X010700Y006190D01*
X010781Y006109D01*
X010888Y006065D01*
X011259Y006065D01*
X011261Y006064D01*
X011317Y006065D01*
X011373Y006065D01*
X011375Y006065D01*
X012152Y006075D01*
X013887Y006075D01*
X014040Y005921D01*
X014040Y005761D01*
X014151Y005650D01*
X014816Y004985D01*
X014816Y004937D01*
X014840Y004880D01*
X011885Y004880D01*
X009740Y007025D01*
X010250Y007025D01*
X010250Y006927D02*
X009838Y006927D01*
X009740Y007025D02*
X009740Y009005D01*
X009110Y009635D01*
X009005Y009740D01*
X006495Y009740D01*
X005804Y010431D01*
X005804Y010493D01*
X005764Y010590D01*
X005690Y010664D01*
X005593Y010704D01*
X005487Y010704D01*
X005390Y010664D01*
X005316Y010590D01*
X005276Y010493D01*
X005276Y010387D01*
X005316Y010290D01*
X005390Y010216D01*
X005487Y010176D01*
X005549Y010176D01*
X006345Y009380D01*
X008855Y009380D01*
X009380Y008855D01*
X009380Y006875D01*
X009485Y006770D01*
X011693Y004563D01*
X010783Y004561D01*
X008450Y006895D01*
X008402Y006947D01*
X008398Y006947D01*
X008395Y006950D01*
X008324Y006950D01*
X008283Y006952D01*
X008237Y007062D01*
X008102Y007197D01*
X007925Y007270D01*
X007735Y007270D01*
X007558Y007197D01*
X007423Y007062D01*
X007350Y006885D01*
X007350Y006695D01*
X007423Y006518D01*
X007491Y006450D01*
X007355Y006450D01*
X007251Y006553D01*
X007310Y006695D01*
X007310Y006885D01*
X007237Y007062D01*
X007102Y007197D01*
X006925Y007270D01*
X006735Y007270D01*
X006558Y007197D01*
X006423Y007062D01*
X006350Y006885D01*
X006350Y006695D01*
X006423Y006518D01*
X006558Y006383D01*
X006735Y006310D01*
X006925Y006310D01*
X006968Y006328D01*
X007100Y006195D01*
X007136Y006159D01*
X007081Y006199D01*
X007014Y006234D01*
X006942Y006257D01*
X006880Y006267D01*
X006880Y005840D01*
X007307Y005840D01*
X007297Y005902D01*
X007274Y005974D01*
X007239Y006041D01*
X007199Y006096D01*
X007205Y006090D01*
X007456Y006090D01*
X007421Y006041D01*
X007386Y005974D01*
X007363Y005902D01*
X007353Y005840D01*
X007780Y005840D01*
X007780Y005740D01*
X007880Y005740D01*
X007880Y005840D01*
X008307Y005840D01*
X008297Y005902D01*
X008274Y005974D01*
X008239Y006041D01*
X008204Y006090D01*
X008355Y006090D01*
X010458Y003987D01*
X010514Y003932D01*
X010333Y003932D01*
X009104Y005161D01*
X009104Y005223D01*
X009064Y005320D01*
X008990Y005394D01*
X008893Y005434D01*
X008787Y005434D01*
X008690Y005394D01*
X008616Y005320D01*
X008576Y005223D01*
X008576Y005117D01*
X008616Y005020D01*
X008690Y004946D01*
X008787Y004906D01*
X008849Y004906D01*
X010078Y003677D01*
X010184Y003572D01*
X010746Y003572D01*
X010746Y003572D01*
X010820Y003572D01*
X010895Y003572D01*
X015037Y003580D01*
X015077Y003540D01*
X011631Y003540D01*
X011520Y003429D01*
X010115Y002024D01*
X010065Y002045D01*
X009895Y002045D01*
X009739Y001981D01*
X009619Y001861D01*
X009555Y001705D01*
X009555Y001535D01*
X009619Y001379D01*
X009739Y001259D01*
X009895Y001195D01*
X010065Y001195D01*
X010221Y001259D01*
X010341Y001379D01*
X010405Y001535D01*
X010405Y001705D01*
X010384Y001755D01*
X010555Y001926D01*
X010555Y001271D01*
X010631Y001195D01*
X011329Y001195D01*
X011405Y001271D01*
X011405Y001969D01*
X011329Y002045D01*
X010674Y002045D01*
X011789Y003160D01*
X018111Y003160D01*
X018620Y002651D01*
X018620Y002002D01*
X018569Y001981D01*
X018449Y001861D01*
X018385Y001705D01*
X018385Y001535D01*
X018449Y001379D01*
X018569Y001259D01*
X018725Y001195D01*
X018895Y001195D01*
X019051Y001259D01*
X019171Y001379D01*
X019235Y001535D01*
X019235Y001705D01*
X019171Y001861D01*
X019051Y001981D01*
X019000Y002002D01*
X019000Y002801D01*
X019171Y002630D01*
X019659Y002630D01*
X019770Y002741D01*
X019919Y002890D01*
X021219Y002890D01*
X021330Y003001D01*
X021969Y003640D01*
X022007Y003640D01*
X022040Y003606D01*
X022137Y003566D01*
X022243Y003566D01*
X022340Y003606D01*
X022414Y003680D01*
X022454Y003777D01*
X022454Y003883D01*
X022414Y003980D01*
X022340Y004054D01*
X022243Y004094D01*
X022137Y004094D01*
X022040Y004054D01*
X022007Y004020D01*
X021955Y004020D01*
X023185Y005250D01*
X025225Y005250D01*
X025461Y005486D01*
X025523Y005486D01*
X025620Y005526D01*
X025694Y005600D01*
X025734Y005697D01*
X025734Y005803D01*
X025694Y005900D01*
X025620Y005974D01*
X025523Y006014D01*
X025417Y006014D01*
X025320Y005974D01*
X025246Y005900D01*
X025206Y005803D01*
X025206Y005741D01*
X025075Y005610D01*
X024698Y005610D01*
X024734Y005697D01*
X024734Y005803D01*
X024694Y005900D01*
X024620Y005974D01*
X024523Y006014D01*
X024417Y006014D01*
X024320Y005974D01*
X024247Y005900D01*
X023055Y005900D01*
X023356Y006201D01*
X023370Y006186D01*
X023467Y006146D01*
X023573Y006146D01*
X023670Y006186D01*
X023744Y006260D01*
X023784Y006357D01*
X023784Y006463D01*
X023744Y006560D01*
X023670Y006634D01*
X023573Y006674D01*
X023467Y006674D01*
X023370Y006634D01*
X023327Y006590D01*
X023235Y006590D01*
X023130Y006485D01*
X021215Y004570D01*
X019953Y004570D01*
X019910Y004614D01*
X019813Y004654D01*
X019707Y004654D01*
X019610Y004614D01*
X019536Y004540D01*
X019496Y004443D01*
X019496Y004337D01*
X019536Y004240D01*
X019610Y004166D01*
X019707Y004126D01*
X019813Y004126D01*
X019910Y004166D01*
X019953Y004210D01*
X021255Y004210D01*
X021115Y004070D01*
X020623Y004070D01*
X021115Y004070D01*
X021214Y004169D02*
X019912Y004169D01*
X019608Y004169D02*
X019080Y004169D01*
X019080Y004267D02*
X019525Y004267D01*
X019496Y004366D02*
X019080Y004366D01*
X019080Y004464D02*
X019505Y004464D01*
X019559Y004563D02*
X019080Y004563D01*
X019080Y004581D02*
X019739Y005240D01*
X020939Y005240D01*
X021458Y005759D01*
X021483Y005754D01*
X021596Y005778D01*
X021691Y005843D01*
X022488Y005843D01*
X022390Y005745D02*
X021443Y005745D01*
X021345Y005646D02*
X022291Y005646D01*
X022193Y005548D02*
X021246Y005548D01*
X021148Y005449D02*
X022094Y005449D01*
X021996Y005351D02*
X021049Y005351D01*
X020951Y005252D02*
X021897Y005252D01*
X021799Y005154D02*
X019652Y005154D01*
X019554Y005055D02*
X021700Y005055D01*
X021602Y004957D02*
X019455Y004957D01*
X019357Y004858D02*
X021503Y004858D01*
X021405Y004760D02*
X019258Y004760D01*
X019160Y004661D02*
X021306Y004661D01*
X021290Y004390D02*
X023310Y006410D01*
X023520Y006410D01*
X023755Y006533D02*
X027025Y006533D01*
X027025Y006631D02*
X023672Y006631D01*
X023368Y006631D02*
X019574Y006631D01*
X019574Y006653D02*
X019534Y006750D01*
X019460Y006824D01*
X019363Y006864D01*
X019315Y006864D01*
X018549Y007630D01*
X016818Y007630D01*
X016599Y007849D01*
X016261Y007849D01*
X016021Y007609D01*
X016021Y007271D01*
X016261Y007031D01*
X016599Y007031D01*
X016818Y007250D01*
X018391Y007250D01*
X019046Y006595D01*
X019046Y006547D01*
X019086Y006450D01*
X019160Y006376D01*
X019236Y006345D01*
X016880Y006345D01*
X016735Y006490D01*
X018327Y006490D01*
X018360Y006456D01*
X018457Y006416D01*
X018563Y006416D01*
X018660Y006456D01*
X018734Y006530D01*
X018774Y006627D01*
X018774Y006733D01*
X018734Y006830D01*
X018660Y006904D01*
X018563Y006944D01*
X018457Y006944D01*
X018360Y006904D01*
X018327Y006870D01*
X015024Y006870D01*
X015024Y006883D01*
X014984Y006980D01*
X014910Y007054D01*
X014822Y007090D01*
X014839Y007107D01*
X014839Y007580D01*
X015009Y007750D01*
X015120Y007861D01*
X015120Y008172D01*
X015261Y008031D01*
X015599Y008031D01*
X015839Y008271D01*
X015839Y008609D01*
X015599Y008849D01*
X015261Y008849D01*
X015120Y008708D01*
X015120Y008839D01*
X014920Y009039D01*
X014809Y009150D01*
X011589Y009150D01*
X011294Y009445D01*
X011294Y009493D01*
X011254Y009590D01*
X011180Y009664D01*
X011083Y009704D01*
X010977Y009704D01*
X010938Y009688D01*
X011340Y010090D01*
X025390Y010090D01*
X025560Y009920D01*
X025560Y009898D01*
X025503Y009842D01*
X025441Y009691D01*
X025441Y009529D01*
X025503Y009378D01*
X025560Y009322D01*
X025560Y008932D01*
X025604Y008826D01*
X025667Y008763D01*
X025667Y008696D01*
X025261Y008290D01*
X023561Y008290D01*
X023450Y008179D01*
X023295Y008024D01*
X023247Y008024D01*
X023150Y007984D01*
X023076Y007910D01*
X023036Y007813D01*
X020752Y007813D01*
X020850Y007912D02*
X023078Y007912D01*
X023036Y007813D02*
X023036Y007707D01*
X023076Y007610D01*
X023150Y007536D01*
X023247Y007496D01*
X023353Y007496D01*
X023450Y007536D01*
X023524Y007610D01*
X023564Y007707D01*
X023564Y007755D01*
X023719Y007910D01*
X025419Y007910D01*
X025936Y008427D01*
X025969Y008461D01*
X027025Y007405D01*
X027025Y004999D01*
X026634Y004608D01*
X026600Y004594D01*
X026526Y004520D01*
X026486Y004423D01*
X026486Y004317D01*
X026526Y004220D01*
X026600Y004146D01*
X026697Y004106D01*
X026803Y004106D01*
X026900Y004146D01*
X026974Y004220D01*
X026988Y004254D01*
X027417Y004683D01*
X027487Y004753D01*
X027525Y004845D01*
X027525Y007180D01*
X027795Y007180D01*
X027796Y007177D01*
X027937Y007036D01*
X028121Y006960D01*
X028319Y006960D01*
X028503Y007036D01*
X028644Y007177D01*
X028720Y007361D01*
X028720Y007559D01*
X028644Y007743D01*
X028503Y007884D01*
X028319Y007960D01*
X028121Y007960D01*
X027937Y007884D01*
X027813Y007760D01*
X027490Y007760D01*
X027439Y007811D01*
X026140Y009110D01*
X026140Y009322D01*
X026197Y009378D01*
X026259Y009529D01*
X026259Y009691D01*
X026197Y009842D01*
X026140Y009898D01*
X026140Y010098D01*
X026096Y010204D01*
X026014Y010286D01*
X025674Y010626D01*
X025568Y010670D01*
X025729Y010571D02*
X029082Y010571D01*
X029082Y010473D02*
X025828Y010473D01*
X025926Y010374D02*
X029082Y010374D01*
X029082Y010276D02*
X026025Y010276D01*
X026107Y010177D02*
X029082Y010177D01*
X029082Y010079D02*
X026140Y010079D01*
X026140Y009980D02*
X026679Y009980D01*
X026694Y009988D02*
X026636Y009959D01*
X026585Y009921D01*
X026539Y009875D01*
X026501Y009824D01*
X026472Y009766D01*
X026453Y009705D01*
X026445Y009660D01*
X026800Y009660D01*
X026800Y010015D01*
X026755Y010007D01*
X026694Y009988D01*
X026800Y009980D02*
X026900Y009980D01*
X026900Y010015D02*
X026900Y009660D01*
X026800Y009660D01*
X026800Y009560D01*
X026445Y009560D01*
X026453Y009515D01*
X026472Y009454D01*
X026501Y009396D01*
X026539Y009345D01*
X026585Y009299D01*
X026636Y009261D01*
X026694Y009232D01*
X026755Y009213D01*
X026800Y009205D01*
X026800Y009560D01*
X026900Y009560D01*
X026900Y009660D01*
X027255Y009660D01*
X027247Y009705D01*
X027228Y009766D01*
X027199Y009824D01*
X027161Y009875D01*
X027115Y009921D01*
X027064Y009959D01*
X027006Y009988D01*
X026945Y010007D01*
X026900Y010015D01*
X027021Y009980D02*
X029082Y009980D01*
X029082Y009882D02*
X028488Y009882D01*
X028481Y009887D02*
X028545Y009840D01*
X028600Y009785D01*
X028647Y009721D01*
X028682Y009651D01*
X028706Y009577D01*
X028717Y009510D01*
X028270Y009510D01*
X028270Y009410D01*
X028717Y009410D01*
X028706Y009343D01*
X028682Y009269D01*
X028647Y009199D01*
X028600Y009135D01*
X028545Y009080D01*
X028481Y009033D01*
X028411Y008998D01*
X028337Y008974D01*
X028270Y008963D01*
X028270Y009410D01*
X028170Y009410D01*
X028170Y008963D01*
X028103Y008974D01*
X028029Y008998D01*
X027959Y009033D01*
X027895Y009080D01*
X027840Y009135D01*
X027793Y009199D01*
X027758Y009269D01*
X027734Y009343D01*
X027723Y009410D01*
X028170Y009410D01*
X028170Y009510D01*
X028170Y009957D01*
X028103Y009946D01*
X028029Y009922D01*
X027959Y009887D01*
X027895Y009840D01*
X027840Y009785D01*
X027793Y009721D01*
X027758Y009651D01*
X027734Y009577D01*
X027723Y009510D01*
X028170Y009510D01*
X028270Y009510D01*
X028270Y009957D01*
X028337Y009946D01*
X028411Y009922D01*
X028481Y009887D01*
X028602Y009783D02*
X029082Y009783D01*
X029082Y009685D02*
X028665Y009685D01*
X028703Y009586D02*
X029082Y009586D01*
X029082Y009488D02*
X028270Y009488D01*
X028270Y009586D02*
X028170Y009586D01*
X028170Y009488D02*
X027239Y009488D01*
X027247Y009515D02*
X027255Y009560D01*
X026900Y009560D01*
X026900Y009205D01*
X026945Y009213D01*
X027006Y009232D01*
X027064Y009261D01*
X027115Y009299D01*
X027161Y009345D01*
X027199Y009396D01*
X027228Y009454D01*
X027247Y009515D01*
X027193Y009389D02*
X027726Y009389D01*
X027751Y009291D02*
X027104Y009291D01*
X026900Y009291D02*
X026800Y009291D01*
X026800Y009389D02*
X026900Y009389D01*
X026900Y009488D02*
X026800Y009488D01*
X026800Y009586D02*
X026259Y009586D01*
X026259Y009685D02*
X026449Y009685D01*
X026481Y009783D02*
X026221Y009783D01*
X026157Y009882D02*
X026545Y009882D01*
X026800Y009882D02*
X026900Y009882D01*
X026900Y009783D02*
X026800Y009783D01*
X026800Y009685D02*
X026900Y009685D01*
X026900Y009586D02*
X027737Y009586D01*
X027775Y009685D02*
X027251Y009685D01*
X027219Y009783D02*
X027838Y009783D01*
X027952Y009882D02*
X027155Y009882D01*
X026461Y009488D02*
X026242Y009488D01*
X026201Y009389D02*
X026507Y009389D01*
X026596Y009291D02*
X026140Y009291D01*
X026140Y009192D02*
X027798Y009192D01*
X027881Y009094D02*
X026157Y009094D01*
X026255Y008995D02*
X028037Y008995D01*
X028121Y008960D02*
X027937Y008884D01*
X027796Y008743D01*
X027720Y008559D01*
X027720Y008361D01*
X027796Y008177D01*
X027937Y008036D01*
X028121Y007960D01*
X028319Y007960D01*
X028503Y008036D01*
X028644Y008177D01*
X028720Y008361D01*
X028720Y008559D01*
X028644Y008743D01*
X028503Y008884D01*
X028319Y008960D01*
X028121Y008960D01*
X028170Y008995D02*
X028270Y008995D01*
X028270Y009094D02*
X028170Y009094D01*
X028170Y009192D02*
X028270Y009192D01*
X028270Y009291D02*
X028170Y009291D01*
X028170Y009389D02*
X028270Y009389D01*
X028642Y009192D02*
X029082Y009192D01*
X029082Y009094D02*
X028559Y009094D01*
X028403Y008995D02*
X029082Y008995D01*
X029082Y008897D02*
X028473Y008897D01*
X028589Y008798D02*
X029082Y008798D01*
X029082Y008700D02*
X028662Y008700D01*
X028703Y008601D02*
X029082Y008601D01*
X029082Y008503D02*
X028720Y008503D01*
X028720Y008404D02*
X029082Y008404D01*
X029082Y008306D02*
X028697Y008306D01*
X028656Y008207D02*
X029082Y008207D01*
X029082Y008109D02*
X028576Y008109D01*
X028440Y008010D02*
X029082Y008010D01*
X029082Y007912D02*
X028436Y007912D01*
X028574Y007813D02*
X029082Y007813D01*
X029082Y007715D02*
X028656Y007715D01*
X028697Y007616D02*
X029082Y007616D01*
X029082Y007518D02*
X028720Y007518D01*
X028720Y007419D02*
X029082Y007419D01*
X029082Y007321D02*
X028703Y007321D01*
X028663Y007222D02*
X029082Y007222D01*
X029082Y007124D02*
X028591Y007124D01*
X028476Y007025D02*
X029082Y007025D01*
X029082Y006927D02*
X028400Y006927D01*
X028319Y006960D02*
X028121Y006960D01*
X027937Y006884D01*
X027796Y006743D01*
X027720Y006559D01*
X027720Y006361D01*
X027796Y006177D01*
X027937Y006036D01*
X028121Y005960D01*
X027937Y005884D01*
X027796Y005743D01*
X027720Y005559D01*
X027720Y005361D01*
X027796Y005177D01*
X027937Y005036D01*
X028121Y004960D01*
X027937Y004884D01*
X027796Y004743D01*
X027720Y004559D01*
X027720Y004361D01*
X027796Y004177D01*
X027937Y004036D01*
X028121Y003960D01*
X028319Y003960D01*
X028503Y004036D01*
X028644Y004177D01*
X028720Y004361D01*
X028720Y004559D01*
X028644Y004743D01*
X028503Y004884D01*
X028319Y004960D01*
X028121Y004960D01*
X028319Y004960D01*
X028503Y005036D01*
X028644Y005177D01*
X028720Y005361D01*
X028720Y005559D01*
X028644Y005743D01*
X028503Y005884D01*
X028319Y005960D01*
X028121Y005960D01*
X028319Y005960D01*
X028503Y006036D01*
X028644Y006177D01*
X028720Y006361D01*
X028720Y006559D01*
X028644Y006743D01*
X028503Y006884D01*
X028319Y006960D01*
X028559Y006828D02*
X029082Y006828D01*
X029082Y006730D02*
X028650Y006730D01*
X028690Y006631D02*
X029082Y006631D01*
X029082Y006533D02*
X028720Y006533D01*
X028720Y006434D02*
X029082Y006434D01*
X029082Y006336D02*
X028710Y006336D01*
X028669Y006237D02*
X029082Y006237D01*
X029082Y006139D02*
X028606Y006139D01*
X028507Y006040D02*
X029082Y006040D01*
X029082Y005942D02*
X028364Y005942D01*
X028544Y005843D02*
X029082Y005843D01*
X029082Y005745D02*
X028643Y005745D01*
X028684Y005646D02*
X029082Y005646D01*
X029082Y005548D02*
X028720Y005548D01*
X028720Y005449D02*
X029082Y005449D01*
X029082Y005351D02*
X028716Y005351D01*
X028675Y005252D02*
X029082Y005252D01*
X029082Y005154D02*
X028621Y005154D01*
X028522Y005055D02*
X029082Y005055D01*
X029082Y004957D02*
X028328Y004957D01*
X028112Y004957D02*
X027525Y004957D01*
X027525Y005055D02*
X027918Y005055D01*
X027819Y005154D02*
X027525Y005154D01*
X027525Y005252D02*
X027765Y005252D01*
X027724Y005351D02*
X027525Y005351D01*
X027525Y005449D02*
X027720Y005449D01*
X027720Y005548D02*
X027525Y005548D01*
X027525Y005646D02*
X027756Y005646D01*
X027797Y005745D02*
X027525Y005745D01*
X027525Y005843D02*
X027896Y005843D01*
X027933Y006040D02*
X027525Y006040D01*
X027525Y005942D02*
X028076Y005942D01*
X027834Y006139D02*
X027525Y006139D01*
X027525Y006237D02*
X027771Y006237D01*
X027730Y006336D02*
X027525Y006336D01*
X027525Y006434D02*
X027720Y006434D01*
X027720Y006533D02*
X027525Y006533D01*
X027525Y006631D02*
X027750Y006631D01*
X027790Y006730D02*
X027525Y006730D01*
X027525Y006828D02*
X027881Y006828D01*
X028040Y006927D02*
X027525Y006927D01*
X027525Y007025D02*
X027964Y007025D01*
X027849Y007124D02*
X027525Y007124D01*
X027025Y007124D02*
X019055Y007124D01*
X018957Y007222D02*
X027025Y007222D01*
X027025Y007321D02*
X018858Y007321D01*
X018760Y007419D02*
X027011Y007419D01*
X026912Y007518D02*
X023405Y007518D01*
X023526Y007616D02*
X026814Y007616D01*
X026715Y007715D02*
X023564Y007715D01*
X023622Y007813D02*
X026617Y007813D01*
X026518Y007912D02*
X025420Y007912D01*
X025519Y008010D02*
X026420Y008010D01*
X026321Y008109D02*
X025617Y008109D01*
X025716Y008207D02*
X026223Y008207D01*
X026124Y008306D02*
X025814Y008306D01*
X025913Y008404D02*
X026026Y008404D01*
X025572Y008601D02*
X024110Y008601D01*
X024040Y008531D02*
X024727Y009218D01*
X024769Y009201D01*
X024931Y009201D01*
X025082Y009263D01*
X025197Y009378D01*
X025259Y009529D01*
X025259Y009691D01*
X025197Y009842D01*
X025082Y009957D01*
X024931Y010019D01*
X024769Y010019D01*
X024618Y009957D01*
X024503Y009842D01*
X024441Y009691D01*
X024441Y009529D01*
X024458Y009487D01*
X023771Y008800D01*
X021201Y008800D01*
X020271Y007870D01*
X019913Y007870D01*
X019984Y007940D01*
X020024Y008037D01*
X020024Y008143D01*
X019984Y008240D01*
X019910Y008314D01*
X019813Y008354D01*
X019707Y008354D01*
X019610Y008314D01*
X019577Y008280D01*
X019109Y008280D01*
X018103Y009285D01*
X018197Y009378D01*
X018259Y009529D01*
X018259Y009691D01*
X018197Y009842D01*
X018082Y009957D01*
X017931Y010019D01*
X017769Y010019D01*
X017618Y009957D01*
X017503Y009842D01*
X017441Y009691D01*
X017441Y009529D01*
X017503Y009378D01*
X017572Y009310D01*
X017128Y009310D01*
X017197Y009378D01*
X017259Y009529D01*
X017259Y009691D01*
X017197Y009842D01*
X017082Y009957D01*
X016931Y010019D01*
X016769Y010019D01*
X016618Y009957D01*
X016503Y009842D01*
X016441Y009691D01*
X016441Y009529D01*
X016503Y009378D01*
X016572Y009310D01*
X016419Y009310D01*
X016242Y009487D01*
X016259Y009529D01*
X016259Y009691D01*
X016197Y009842D01*
X016082Y009957D01*
X015931Y010019D01*
X015769Y010019D01*
X015618Y009957D01*
X015503Y009842D01*
X015441Y009691D01*
X015441Y009529D01*
X015503Y009378D01*
X015618Y009263D01*
X015769Y009201D01*
X015931Y009201D01*
X015973Y009218D01*
X016150Y009041D01*
X016261Y008930D01*
X017921Y008930D01*
X018391Y008460D01*
X017703Y008460D01*
X017670Y008494D01*
X017573Y008534D01*
X017467Y008534D01*
X017370Y008494D01*
X017296Y008420D01*
X017256Y008323D01*
X017256Y008217D01*
X017296Y008120D01*
X017370Y008046D01*
X017467Y008006D01*
X017573Y008006D01*
X017670Y008046D01*
X017703Y008080D01*
X018301Y008080D01*
X018891Y007490D01*
X020429Y007490D01*
X020540Y007601D01*
X021359Y008420D01*
X023929Y008420D01*
X024040Y008531D01*
X024011Y008503D02*
X025474Y008503D01*
X025375Y008404D02*
X021343Y008404D01*
X021244Y008306D02*
X025277Y008306D01*
X025667Y008700D02*
X024208Y008700D01*
X024307Y008798D02*
X025632Y008798D01*
X025575Y008897D02*
X024405Y008897D01*
X024504Y008995D02*
X025560Y008995D01*
X025560Y009094D02*
X024602Y009094D01*
X024701Y009192D02*
X025560Y009192D01*
X025560Y009291D02*
X025109Y009291D01*
X025201Y009389D02*
X025499Y009389D01*
X025458Y009488D02*
X025242Y009488D01*
X025259Y009586D02*
X025441Y009586D01*
X025441Y009685D02*
X025259Y009685D01*
X025221Y009783D02*
X025479Y009783D01*
X025543Y009882D02*
X025157Y009882D01*
X025025Y009980D02*
X025500Y009980D01*
X025401Y010079D02*
X011329Y010079D01*
X011230Y009980D02*
X011679Y009980D01*
X011694Y009988D02*
X011636Y009959D01*
X011585Y009921D01*
X011539Y009875D01*
X011501Y009824D01*
X011472Y009766D01*
X011453Y009705D01*
X011445Y009660D01*
X011800Y009660D01*
X011800Y010015D01*
X011755Y010007D01*
X011694Y009988D01*
X011800Y009980D02*
X011900Y009980D01*
X011900Y010015D02*
X011900Y009660D01*
X011800Y009660D01*
X011800Y009560D01*
X011445Y009560D01*
X011453Y009515D01*
X011472Y009454D01*
X011501Y009396D01*
X011539Y009345D01*
X011585Y009299D01*
X011636Y009261D01*
X011694Y009232D01*
X011755Y009213D01*
X011800Y009205D01*
X011800Y009560D01*
X011900Y009560D01*
X011900Y009660D01*
X012255Y009660D01*
X012247Y009705D01*
X012228Y009766D01*
X012199Y009824D01*
X012161Y009875D01*
X012115Y009921D01*
X012064Y009959D01*
X012006Y009988D01*
X011945Y010007D01*
X011900Y010015D01*
X012021Y009980D02*
X012675Y009980D01*
X012618Y009957D02*
X012503Y009842D01*
X012441Y009691D01*
X012441Y009529D01*
X012503Y009378D01*
X012618Y009263D01*
X012769Y009201D01*
X012931Y009201D01*
X013082Y009263D01*
X013197Y009378D01*
X013259Y009529D01*
X013259Y009691D01*
X013197Y009842D01*
X013082Y009957D01*
X012931Y010019D01*
X012769Y010019D01*
X012618Y009957D01*
X012543Y009882D02*
X012155Y009882D01*
X012219Y009783D02*
X012479Y009783D01*
X012441Y009685D02*
X012251Y009685D01*
X012255Y009560D02*
X011900Y009560D01*
X011900Y009205D01*
X011945Y009213D01*
X012006Y009232D01*
X012064Y009261D01*
X012115Y009299D01*
X012161Y009345D01*
X012199Y009396D01*
X012228Y009454D01*
X012247Y009515D01*
X012255Y009560D01*
X012239Y009488D02*
X012458Y009488D01*
X012441Y009586D02*
X011900Y009586D01*
X011900Y009488D02*
X011800Y009488D01*
X011800Y009586D02*
X011255Y009586D01*
X011294Y009488D02*
X011461Y009488D01*
X011507Y009389D02*
X011350Y009389D01*
X011448Y009291D02*
X011596Y009291D01*
X011547Y009192D02*
X015999Y009192D01*
X016098Y009094D02*
X014865Y009094D01*
X014931Y009201D02*
X015082Y009263D01*
X015197Y009378D01*
X015259Y009529D01*
X015259Y009691D01*
X015197Y009842D01*
X015082Y009957D01*
X014931Y010019D01*
X014769Y010019D01*
X014618Y009957D01*
X014503Y009842D01*
X014441Y009691D01*
X014441Y009529D01*
X014503Y009378D01*
X014618Y009263D01*
X014769Y009201D01*
X014931Y009201D01*
X015109Y009291D02*
X015591Y009291D01*
X015499Y009389D02*
X015201Y009389D01*
X015242Y009488D02*
X015458Y009488D01*
X015441Y009586D02*
X015259Y009586D01*
X015259Y009685D02*
X015441Y009685D01*
X015479Y009783D02*
X015221Y009783D01*
X015157Y009882D02*
X015543Y009882D01*
X015675Y009980D02*
X015025Y009980D01*
X014675Y009980D02*
X014025Y009980D01*
X014082Y009957D02*
X013931Y010019D01*
X013769Y010019D01*
X013618Y009957D01*
X013503Y009842D01*
X013441Y009691D01*
X013441Y009529D01*
X013503Y009378D01*
X013618Y009263D01*
X013769Y009201D01*
X013931Y009201D01*
X014082Y009263D01*
X014197Y009378D01*
X014259Y009529D01*
X014259Y009691D01*
X014197Y009842D01*
X014082Y009957D01*
X014157Y009882D02*
X014543Y009882D01*
X014479Y009783D02*
X014221Y009783D01*
X014259Y009685D02*
X014441Y009685D01*
X014441Y009586D02*
X014259Y009586D01*
X014242Y009488D02*
X014458Y009488D01*
X014499Y009389D02*
X014201Y009389D01*
X014109Y009291D02*
X014591Y009291D01*
X014964Y008995D02*
X016196Y008995D01*
X016261Y008847D02*
X016023Y008609D01*
X016023Y008490D01*
X016380Y008490D01*
X016380Y008847D01*
X016261Y008847D01*
X016212Y008798D02*
X015650Y008798D01*
X015749Y008700D02*
X016113Y008700D01*
X016023Y008601D02*
X015839Y008601D01*
X015839Y008503D02*
X016023Y008503D01*
X016023Y008390D02*
X016023Y008271D01*
X016261Y008033D01*
X016380Y008033D01*
X016380Y008390D01*
X016480Y008390D01*
X016480Y008490D01*
X016837Y008490D01*
X016837Y008609D01*
X016599Y008847D01*
X016480Y008847D01*
X016480Y008490D01*
X016380Y008490D01*
X016380Y008390D01*
X016023Y008390D01*
X016023Y008306D02*
X015839Y008306D01*
X015839Y008404D02*
X016380Y008404D01*
X016380Y008306D02*
X016480Y008306D01*
X016480Y008390D02*
X016480Y008033D01*
X016599Y008033D01*
X016837Y008271D01*
X016837Y008390D01*
X016480Y008390D01*
X016480Y008404D02*
X017290Y008404D01*
X017256Y008306D02*
X016837Y008306D01*
X016773Y008207D02*
X017260Y008207D01*
X017308Y008109D02*
X016675Y008109D01*
X016480Y008109D02*
X016380Y008109D01*
X016380Y008207D02*
X016480Y008207D01*
X016185Y008109D02*
X015677Y008109D01*
X015775Y008207D02*
X016087Y008207D01*
X016380Y008503D02*
X016480Y008503D01*
X016480Y008601D02*
X016380Y008601D01*
X016380Y008700D02*
X016480Y008700D01*
X016480Y008798D02*
X016380Y008798D01*
X016648Y008798D02*
X018053Y008798D01*
X017955Y008897D02*
X015062Y008897D01*
X015120Y008798D02*
X015210Y008798D01*
X014182Y008770D02*
X014021Y008609D01*
X014021Y008385D01*
X013608Y007972D01*
X013538Y007902D01*
X013500Y007810D01*
X013500Y007341D01*
X013476Y007398D01*
X013388Y007486D01*
X013272Y007534D01*
X013148Y007534D01*
X013032Y007486D01*
X013010Y007464D01*
X012896Y007460D01*
X012850Y007460D01*
X012846Y007458D01*
X012842Y007458D01*
X012801Y007439D01*
X012758Y007422D01*
X012755Y007419D01*
X012752Y007417D01*
X012720Y007384D01*
X012008Y006672D01*
X011989Y006653D01*
X011314Y006645D01*
X011065Y006645D01*
X010830Y006880D01*
X010830Y009267D01*
X010880Y009216D01*
X010977Y009176D01*
X011025Y009176D01*
X011431Y008770D01*
X014182Y008770D01*
X014111Y008700D02*
X010830Y008700D01*
X010830Y008798D02*
X011403Y008798D01*
X011305Y008897D02*
X010830Y008897D01*
X010830Y008995D02*
X011206Y008995D01*
X011108Y009094D02*
X010830Y009094D01*
X010830Y009192D02*
X010939Y009192D01*
X010250Y009192D02*
X009553Y009192D01*
X009651Y009094D02*
X010250Y009094D01*
X010250Y008995D02*
X009740Y008995D01*
X009740Y008897D02*
X010250Y008897D01*
X010250Y008798D02*
X009740Y008798D01*
X009740Y008700D02*
X010250Y008700D01*
X010250Y008601D02*
X009740Y008601D01*
X009740Y008503D02*
X010250Y008503D01*
X010250Y008404D02*
X009740Y008404D01*
X009740Y008306D02*
X010250Y008306D01*
X010250Y008207D02*
X009740Y008207D01*
X009740Y008109D02*
X010250Y008109D01*
X010250Y008010D02*
X009740Y008010D01*
X009740Y007912D02*
X010250Y007912D01*
X010250Y007813D02*
X009740Y007813D01*
X009740Y007715D02*
X010250Y007715D01*
X010250Y007616D02*
X009740Y007616D01*
X009740Y007518D02*
X010250Y007518D01*
X010250Y007419D02*
X009740Y007419D01*
X009740Y007321D02*
X010250Y007321D01*
X010250Y007222D02*
X009740Y007222D01*
X009740Y007124D02*
X010250Y007124D01*
X010830Y007124D02*
X012460Y007124D01*
X012558Y007222D02*
X010830Y007222D01*
X010830Y007321D02*
X012657Y007321D01*
X012755Y007419D02*
X010830Y007419D01*
X010830Y007518D02*
X013108Y007518D01*
X013312Y007518D02*
X013500Y007518D01*
X013500Y007616D02*
X010830Y007616D01*
X010830Y007715D02*
X013500Y007715D01*
X013501Y007813D02*
X010830Y007813D01*
X010830Y007912D02*
X013548Y007912D01*
X013608Y007972D02*
X013608Y007972D01*
X013646Y008010D02*
X010830Y008010D01*
X010830Y008109D02*
X013745Y008109D01*
X013843Y008207D02*
X010830Y008207D01*
X010830Y008306D02*
X013942Y008306D01*
X014021Y008404D02*
X010830Y008404D01*
X010830Y008503D02*
X014021Y008503D01*
X014021Y008601D02*
X010830Y008601D01*
X009560Y008930D02*
X008930Y009560D01*
X006420Y009560D01*
X005540Y010440D01*
X005331Y010276D02*
X002724Y010276D01*
X002727Y010272D02*
X002684Y010331D01*
X002633Y010382D01*
X002573Y010425D01*
X002509Y010458D01*
X002439Y010481D01*
X002381Y010490D01*
X002381Y010079D01*
X002792Y010079D01*
X002783Y010137D01*
X002760Y010207D01*
X002727Y010272D01*
X002770Y010177D02*
X005485Y010177D01*
X005647Y010079D02*
X002381Y010079D01*
X002381Y009979D01*
X002792Y009979D01*
X002783Y009920D01*
X002760Y009851D01*
X002727Y009786D01*
X002684Y009727D01*
X002633Y009676D01*
X002573Y009633D01*
X002509Y009600D01*
X002439Y009577D01*
X002381Y009568D01*
X002381Y009979D01*
X002281Y009979D01*
X002281Y009568D01*
X002222Y009577D01*
X002153Y009600D01*
X002088Y009633D01*
X002029Y009676D01*
X001977Y009727D01*
X001934Y009786D01*
X001901Y009851D01*
X001879Y009920D01*
X001869Y009979D01*
X002281Y009979D01*
X002281Y010079D01*
X002281Y010490D01*
X002222Y010481D01*
X002153Y010458D01*
X002088Y010425D01*
X002029Y010382D01*
X001977Y010331D01*
X001934Y010272D01*
X001901Y010207D01*
X001879Y010137D01*
X001869Y010079D01*
X002281Y010079D01*
X002381Y010079D01*
X002381Y010177D02*
X002281Y010177D01*
X002281Y010079D02*
X000398Y010079D01*
X000398Y010177D02*
X001892Y010177D01*
X001937Y010276D02*
X000398Y010276D01*
X000398Y010374D02*
X002020Y010374D01*
X002196Y010473D02*
X000398Y010473D01*
X000398Y010571D02*
X005308Y010571D01*
X005276Y010473D02*
X002465Y010473D01*
X002381Y010473D02*
X002281Y010473D01*
X002281Y010374D02*
X002381Y010374D01*
X002381Y010276D02*
X002281Y010276D01*
X002641Y010374D02*
X005282Y010374D01*
X005772Y010571D02*
X011001Y010571D01*
X010974Y010544D02*
X010974Y010544D01*
X010902Y010473D02*
X005804Y010473D01*
X005861Y010374D02*
X008501Y010374D01*
X008440Y010276D02*
X005959Y010276D01*
X006058Y010177D02*
X008426Y010177D01*
X008450Y010079D02*
X006156Y010079D01*
X006255Y009980D02*
X008527Y009980D01*
X009060Y009685D02*
X010250Y009685D01*
X010250Y009586D02*
X009159Y009586D01*
X009257Y009488D02*
X010250Y009488D01*
X010250Y009389D02*
X009356Y009389D01*
X009454Y009291D02*
X010250Y009291D01*
X009560Y008930D02*
X009560Y006950D01*
X011810Y004700D01*
X018060Y004700D01*
X018190Y004570D01*
X019080Y004581D02*
X019080Y003259D01*
X019329Y003010D01*
X019501Y003010D01*
X019527Y003036D01*
X019437Y003036D01*
X019340Y003076D01*
X019266Y003150D01*
X019226Y003247D01*
X019226Y003353D01*
X019266Y003450D01*
X019340Y003524D01*
X019437Y003564D01*
X019543Y003564D01*
X019640Y003524D01*
X019683Y003480D01*
X020905Y003480D01*
X021135Y003710D01*
X020623Y003710D01*
X020580Y003666D01*
X020483Y003626D01*
X020377Y003626D01*
X020280Y003666D01*
X020206Y003740D01*
X020166Y003837D01*
X020166Y003943D01*
X020206Y004040D01*
X020280Y004114D01*
X020377Y004154D01*
X020483Y004154D01*
X020580Y004114D01*
X020623Y004070D01*
X020237Y004070D02*
X019080Y004070D01*
X019080Y003972D02*
X020178Y003972D01*
X020166Y003873D02*
X019080Y003873D01*
X019080Y003775D02*
X020192Y003775D01*
X020271Y003676D02*
X019080Y003676D01*
X019080Y003578D02*
X021003Y003578D01*
X021101Y003676D02*
X020589Y003676D01*
X020430Y003890D02*
X021190Y003890D01*
X023020Y005720D01*
X024440Y005720D01*
X024470Y005750D01*
X024713Y005646D02*
X025111Y005646D01*
X025206Y005745D02*
X024734Y005745D01*
X024717Y005843D02*
X025223Y005843D01*
X025288Y005942D02*
X024652Y005942D01*
X024288Y005942D02*
X023096Y005942D01*
X023195Y006040D02*
X027025Y006040D01*
X027025Y005942D02*
X025652Y005942D01*
X025717Y005843D02*
X027025Y005843D01*
X027025Y005745D02*
X025734Y005745D01*
X025713Y005646D02*
X027025Y005646D01*
X027025Y005548D02*
X025641Y005548D01*
X025424Y005449D02*
X027025Y005449D01*
X027025Y005351D02*
X025325Y005351D01*
X025227Y005252D02*
X027025Y005252D01*
X027025Y005154D02*
X023088Y005154D01*
X022990Y005055D02*
X027025Y005055D01*
X026983Y004957D02*
X022891Y004957D01*
X022793Y004858D02*
X026884Y004858D01*
X026786Y004760D02*
X022694Y004760D01*
X022596Y004661D02*
X026687Y004661D01*
X026569Y004563D02*
X022497Y004563D01*
X022399Y004464D02*
X026503Y004464D01*
X026486Y004366D02*
X022300Y004366D01*
X022202Y004267D02*
X026507Y004267D01*
X026578Y004169D02*
X022103Y004169D01*
X022079Y004070D02*
X022005Y004070D01*
X022301Y004070D02*
X027903Y004070D01*
X027804Y004169D02*
X026922Y004169D01*
X027001Y004267D02*
X027759Y004267D01*
X027720Y004366D02*
X027099Y004366D01*
X027198Y004464D02*
X027720Y004464D01*
X027721Y004563D02*
X027296Y004563D01*
X027395Y004661D02*
X027762Y004661D01*
X027812Y004760D02*
X027489Y004760D01*
X027525Y004858D02*
X027911Y004858D01*
X028529Y004858D02*
X029082Y004858D01*
X029082Y004760D02*
X028628Y004760D01*
X028678Y004661D02*
X029082Y004661D01*
X029082Y004563D02*
X028719Y004563D01*
X028720Y004464D02*
X029082Y004464D01*
X029082Y004366D02*
X028720Y004366D01*
X028681Y004267D02*
X029082Y004267D01*
X029082Y004169D02*
X028636Y004169D01*
X028537Y004070D02*
X029082Y004070D01*
X029082Y003972D02*
X028347Y003972D01*
X028093Y003972D02*
X022417Y003972D01*
X022454Y003873D02*
X029082Y003873D01*
X029082Y003775D02*
X022453Y003775D01*
X022409Y003676D02*
X029082Y003676D01*
X029082Y003578D02*
X022270Y003578D01*
X022110Y003578D02*
X021906Y003578D01*
X021808Y003479D02*
X029082Y003479D01*
X029082Y003381D02*
X021709Y003381D01*
X021611Y003282D02*
X029082Y003282D01*
X029082Y003184D02*
X028594Y003184D01*
X028593Y003184D02*
X028409Y003260D01*
X028211Y003260D01*
X028027Y003184D01*
X027886Y003043D01*
X027810Y002859D01*
X027810Y002661D01*
X027886Y002477D01*
X028027Y002336D01*
X028211Y002260D01*
X028409Y002260D01*
X028593Y002336D01*
X028734Y002477D01*
X028810Y002661D01*
X028810Y002859D01*
X028734Y003043D01*
X028593Y003184D01*
X028692Y003085D02*
X029082Y003085D01*
X029082Y002987D02*
X028757Y002987D01*
X028798Y002888D02*
X029082Y002888D01*
X029082Y002790D02*
X028810Y002790D01*
X028810Y002691D02*
X029082Y002691D01*
X029082Y002593D02*
X028782Y002593D01*
X028741Y002494D02*
X029082Y002494D01*
X029082Y002396D02*
X028653Y002396D01*
X028499Y002297D02*
X029082Y002297D01*
X029082Y002199D02*
X026836Y002199D01*
X026836Y002105D02*
X026755Y001910D01*
X026606Y001761D01*
X026411Y001680D01*
X026200Y001680D01*
X026006Y001761D01*
X025857Y001910D01*
X025776Y002105D01*
X025776Y002315D01*
X025857Y002510D01*
X026006Y002659D01*
X026200Y002740D01*
X026411Y002740D01*
X026606Y002659D01*
X026755Y002510D01*
X026836Y002315D01*
X026836Y002105D01*
X026834Y002100D02*
X028162Y002100D01*
X028211Y002120D02*
X028027Y002044D01*
X027886Y001903D01*
X026748Y001903D01*
X026793Y002002D02*
X027984Y002002D01*
X027886Y001903D02*
X027810Y001719D01*
X027810Y001521D01*
X027886Y001337D01*
X028027Y001196D01*
X028211Y001120D01*
X028409Y001120D01*
X028593Y001196D01*
X028734Y001337D01*
X028810Y001521D01*
X028810Y001719D01*
X028734Y001903D01*
X029082Y001903D01*
X029082Y001805D02*
X028775Y001805D01*
X028810Y001706D02*
X029082Y001706D01*
X029082Y001608D02*
X028810Y001608D01*
X028805Y001509D02*
X029082Y001509D01*
X029082Y001411D02*
X028764Y001411D01*
X028709Y001312D02*
X029082Y001312D01*
X029082Y001214D02*
X028611Y001214D01*
X029082Y001115D02*
X021657Y001115D01*
X021577Y001082D02*
X021885Y001209D01*
X022121Y001445D01*
X022248Y001753D01*
X022248Y002087D01*
X022121Y002395D01*
X021885Y002631D01*
X021577Y002758D01*
X021243Y002758D01*
X020935Y002631D01*
X020699Y002395D01*
X020572Y002087D01*
X020572Y001753D01*
X020699Y001445D01*
X020935Y001209D01*
X021243Y001082D01*
X021577Y001082D01*
X021889Y001214D02*
X028009Y001214D01*
X027911Y001312D02*
X021987Y001312D01*
X022086Y001411D02*
X027856Y001411D01*
X027815Y001509D02*
X022147Y001509D01*
X022188Y001608D02*
X027810Y001608D01*
X027810Y001706D02*
X026474Y001706D01*
X026650Y001805D02*
X027845Y001805D01*
X028211Y002120D02*
X028409Y002120D01*
X028593Y002044D01*
X028734Y001903D01*
X028636Y002002D02*
X029082Y002002D01*
X029082Y002100D02*
X028458Y002100D01*
X028121Y002297D02*
X026836Y002297D01*
X026803Y002396D02*
X027967Y002396D01*
X027879Y002494D02*
X026762Y002494D01*
X026673Y002593D02*
X027838Y002593D01*
X027810Y002691D02*
X026530Y002691D01*
X026082Y002691D02*
X025082Y002691D01*
X025158Y002659D02*
X024963Y002740D01*
X024753Y002740D01*
X024558Y002659D01*
X024409Y002510D01*
X024328Y002315D01*
X024328Y002105D01*
X024409Y001910D01*
X024558Y001761D01*
X024753Y001680D01*
X024963Y001680D01*
X025158Y001761D01*
X025307Y001910D01*
X025388Y002105D01*
X025388Y002315D01*
X025307Y002510D01*
X025158Y002659D01*
X025225Y002593D02*
X025939Y002593D01*
X025850Y002494D02*
X025314Y002494D01*
X025355Y002396D02*
X025809Y002396D01*
X025776Y002297D02*
X025388Y002297D01*
X025388Y002199D02*
X025776Y002199D01*
X025778Y002100D02*
X025386Y002100D01*
X025345Y002002D02*
X025819Y002002D01*
X025863Y001903D02*
X025300Y001903D01*
X025202Y001805D02*
X025962Y001805D01*
X026138Y001706D02*
X025026Y001706D01*
X024690Y001706D02*
X023890Y001706D01*
X023864Y001680D02*
X023940Y001756D01*
X023940Y002664D01*
X023864Y002740D01*
X022956Y002740D01*
X022880Y002664D01*
X022880Y001756D01*
X022956Y001680D01*
X023864Y001680D01*
X023940Y001805D02*
X024514Y001805D01*
X024415Y001903D02*
X023940Y001903D01*
X023940Y002002D02*
X024371Y002002D01*
X024330Y002100D02*
X023940Y002100D01*
X023940Y002199D02*
X024328Y002199D01*
X024328Y002297D02*
X023940Y002297D01*
X023940Y002396D02*
X024361Y002396D01*
X024402Y002494D02*
X023940Y002494D01*
X023940Y002593D02*
X024491Y002593D01*
X024634Y002691D02*
X023913Y002691D01*
X022907Y002691D02*
X021739Y002691D01*
X021923Y002593D02*
X022880Y002593D01*
X022880Y002494D02*
X022021Y002494D01*
X022120Y002396D02*
X022880Y002396D01*
X022880Y002297D02*
X022161Y002297D01*
X022202Y002199D02*
X022880Y002199D01*
X022880Y002100D02*
X022243Y002100D01*
X022248Y002002D02*
X022880Y002002D01*
X022880Y001903D02*
X022248Y001903D01*
X022248Y001805D02*
X022880Y001805D01*
X022930Y001706D02*
X022229Y001706D01*
X020931Y001214D02*
X020178Y001214D01*
X020159Y001195D02*
X020235Y001271D01*
X020235Y001969D01*
X020159Y002045D01*
X019461Y002045D01*
X019385Y001969D01*
X019385Y001271D01*
X019461Y001195D01*
X020159Y001195D01*
X020235Y001312D02*
X020833Y001312D01*
X020734Y001411D02*
X020235Y001411D01*
X020235Y001509D02*
X020673Y001509D01*
X020632Y001608D02*
X020235Y001608D01*
X020235Y001706D02*
X020591Y001706D01*
X020572Y001805D02*
X020235Y001805D01*
X020235Y001903D02*
X020572Y001903D01*
X020572Y002002D02*
X020203Y002002D01*
X020577Y002100D02*
X019000Y002100D01*
X019000Y002002D02*
X019417Y002002D01*
X019385Y001903D02*
X019128Y001903D01*
X019194Y001805D02*
X019385Y001805D01*
X019385Y001706D02*
X019235Y001706D01*
X019235Y001608D02*
X019385Y001608D01*
X019385Y001509D02*
X019224Y001509D01*
X019184Y001411D02*
X019385Y001411D01*
X019385Y001312D02*
X019103Y001312D01*
X018940Y001214D02*
X019442Y001214D01*
X018680Y001214D02*
X017940Y001214D01*
X017895Y001195D02*
X018051Y001259D01*
X018171Y001379D01*
X018235Y001535D01*
X018235Y001705D01*
X018171Y001861D01*
X018051Y001981D01*
X017895Y002045D01*
X017725Y002045D01*
X017569Y001981D01*
X017449Y001861D01*
X017385Y001705D01*
X017385Y001535D01*
X017449Y001379D01*
X017569Y001259D01*
X017725Y001195D01*
X017895Y001195D01*
X017680Y001214D02*
X016940Y001214D01*
X016895Y001195D02*
X017051Y001259D01*
X017171Y001379D01*
X017235Y001535D01*
X017235Y001705D01*
X017171Y001861D01*
X017051Y001981D01*
X016895Y002045D01*
X016725Y002045D01*
X016569Y001981D01*
X016449Y001861D01*
X016385Y001705D01*
X016385Y001535D01*
X016449Y001379D01*
X016569Y001259D01*
X016725Y001195D01*
X016895Y001195D01*
X016680Y001214D02*
X015931Y001214D01*
X015909Y001206D02*
X015973Y001227D01*
X016032Y001257D01*
X016086Y001297D01*
X016133Y001344D01*
X016173Y001398D01*
X016203Y001457D01*
X016224Y001521D01*
X016231Y001570D01*
X015860Y001570D01*
X015860Y001670D01*
X016231Y001670D01*
X016224Y001719D01*
X016203Y001783D01*
X016173Y001842D01*
X016133Y001896D01*
X016086Y001943D01*
X016032Y001983D01*
X015973Y002013D01*
X015909Y002034D01*
X015860Y002041D01*
X015860Y001670D01*
X015760Y001670D01*
X015760Y002041D01*
X015711Y002034D01*
X015647Y002013D01*
X015588Y001983D01*
X015534Y001943D01*
X015487Y001896D01*
X015447Y001842D01*
X015417Y001783D01*
X015396Y001719D01*
X015389Y001670D01*
X015760Y001670D01*
X015760Y001570D01*
X015860Y001570D01*
X015860Y001199D01*
X015909Y001206D01*
X015860Y001214D02*
X015760Y001214D01*
X015760Y001199D02*
X015760Y001570D01*
X015389Y001570D01*
X015396Y001521D01*
X015417Y001457D01*
X015447Y001398D01*
X015487Y001344D01*
X015534Y001297D01*
X015588Y001257D01*
X015647Y001227D01*
X015711Y001206D01*
X015760Y001199D01*
X015689Y001214D02*
X014689Y001214D01*
X014685Y001209D02*
X014921Y001445D01*
X015048Y001753D01*
X015048Y002087D01*
X014921Y002395D01*
X014685Y002631D01*
X014377Y002758D01*
X014043Y002758D01*
X013735Y002631D01*
X013499Y002395D01*
X013395Y002143D01*
X013291Y002395D01*
X013055Y002631D01*
X012747Y002758D01*
X012413Y002758D01*
X012105Y002631D01*
X011869Y002395D01*
X011742Y002087D01*
X011742Y001753D01*
X011869Y001445D01*
X012105Y001209D01*
X012413Y001082D01*
X012747Y001082D01*
X013055Y001209D01*
X013291Y001445D01*
X013395Y001697D01*
X013499Y001445D01*
X013735Y001209D01*
X014043Y001082D01*
X014377Y001082D01*
X014685Y001209D01*
X014787Y001312D02*
X015518Y001312D01*
X015441Y001411D02*
X014886Y001411D01*
X014947Y001509D02*
X015400Y001509D01*
X015760Y001509D02*
X015860Y001509D01*
X015860Y001411D02*
X015760Y001411D01*
X015760Y001312D02*
X015860Y001312D01*
X016102Y001312D02*
X016517Y001312D01*
X016436Y001411D02*
X016179Y001411D01*
X016220Y001509D02*
X016396Y001509D01*
X016385Y001608D02*
X015860Y001608D01*
X015860Y001706D02*
X015760Y001706D01*
X015760Y001608D02*
X014988Y001608D01*
X015029Y001706D02*
X015394Y001706D01*
X015428Y001805D02*
X015048Y001805D01*
X015048Y001903D02*
X015493Y001903D01*
X015625Y002002D02*
X015048Y002002D01*
X015043Y002100D02*
X018620Y002100D01*
X018620Y002002D02*
X018000Y002002D01*
X018128Y001903D02*
X018492Y001903D01*
X018426Y001805D02*
X018194Y001805D01*
X018235Y001706D02*
X018385Y001706D01*
X018385Y001608D02*
X018235Y001608D01*
X018224Y001509D02*
X018396Y001509D01*
X018436Y001411D02*
X018184Y001411D01*
X018103Y001312D02*
X018517Y001312D01*
X017517Y001312D02*
X017103Y001312D01*
X017184Y001411D02*
X017436Y001411D01*
X017396Y001509D02*
X017224Y001509D01*
X017235Y001608D02*
X017385Y001608D01*
X017385Y001706D02*
X017235Y001706D01*
X017194Y001805D02*
X017426Y001805D01*
X017492Y001903D02*
X017128Y001903D01*
X017000Y002002D02*
X017620Y002002D01*
X016620Y002002D02*
X015995Y002002D01*
X015860Y002002D02*
X015760Y002002D01*
X015760Y001903D02*
X015860Y001903D01*
X015860Y001805D02*
X015760Y001805D01*
X016127Y001903D02*
X016492Y001903D01*
X016426Y001805D02*
X016192Y001805D01*
X016226Y001706D02*
X016385Y001706D01*
X015002Y002199D02*
X018620Y002199D01*
X018620Y002297D02*
X014961Y002297D01*
X014920Y002396D02*
X018620Y002396D01*
X018620Y002494D02*
X014821Y002494D01*
X014723Y002593D02*
X018620Y002593D01*
X018580Y002691D02*
X014539Y002691D01*
X013881Y002691D02*
X012909Y002691D01*
X013093Y002593D02*
X013697Y002593D01*
X013599Y002494D02*
X013191Y002494D01*
X013290Y002396D02*
X013500Y002396D01*
X013459Y002297D02*
X013331Y002297D01*
X013372Y002199D02*
X013418Y002199D01*
X012251Y002691D02*
X011320Y002691D01*
X011418Y002790D02*
X018482Y002790D01*
X018383Y002888D02*
X011517Y002888D01*
X011615Y002987D02*
X018285Y002987D01*
X018186Y003085D02*
X011714Y003085D01*
X011275Y003184D02*
X005670Y003184D01*
X005711Y003282D02*
X011373Y003282D01*
X011472Y003381D02*
X005750Y003381D01*
X005750Y003377D02*
X005750Y003703D01*
X005625Y004004D01*
X005625Y004004D01*
X005394Y004235D01*
X005093Y004360D01*
X004767Y004360D01*
X004466Y004235D01*
X004466Y004235D01*
X004235Y004004D01*
X004110Y003703D01*
X004110Y003377D01*
X004235Y003076D01*
X004235Y003076D01*
X004466Y002845D01*
X004767Y002720D01*
X004967Y002720D01*
X005093Y002720D01*
X005093Y002720D01*
X005394Y002845D01*
X005394Y002845D01*
X005625Y003076D01*
X005750Y003377D01*
X005750Y003479D02*
X011570Y003479D01*
X011176Y003085D02*
X005629Y003085D01*
X005625Y003076D02*
X005625Y003076D01*
X005536Y002987D02*
X011078Y002987D01*
X010979Y002888D02*
X005438Y002888D01*
X005547Y002758D02*
X005213Y002758D01*
X004905Y002631D01*
X004669Y002395D01*
X004542Y002087D01*
X004542Y001753D01*
X004669Y001445D01*
X004905Y001209D01*
X005213Y001082D01*
X005547Y001082D01*
X005855Y001209D01*
X006091Y001445D01*
X006218Y001753D01*
X006218Y002087D01*
X006091Y002395D01*
X005855Y002631D01*
X005547Y002758D01*
X005709Y002691D02*
X010782Y002691D01*
X010684Y002593D02*
X005893Y002593D01*
X005991Y002494D02*
X010585Y002494D01*
X010487Y002396D02*
X006090Y002396D01*
X006131Y002297D02*
X010388Y002297D01*
X010290Y002199D02*
X006172Y002199D01*
X006213Y002100D02*
X010191Y002100D01*
X009790Y002002D02*
X009170Y002002D01*
X009221Y001981D02*
X009065Y002045D01*
X008895Y002045D01*
X008739Y001981D01*
X008619Y001861D01*
X008555Y001705D01*
X008555Y001535D01*
X008619Y001379D01*
X008739Y001259D01*
X008895Y001195D01*
X009065Y001195D01*
X009221Y001259D01*
X009341Y001379D01*
X009405Y001535D01*
X009405Y001705D01*
X009341Y001861D01*
X009221Y001981D01*
X009298Y001903D02*
X009662Y001903D01*
X009596Y001805D02*
X009364Y001805D01*
X009405Y001706D02*
X009555Y001706D01*
X009555Y001608D02*
X009405Y001608D01*
X009394Y001509D02*
X009566Y001509D01*
X009606Y001411D02*
X009354Y001411D01*
X009273Y001312D02*
X009687Y001312D01*
X009850Y001214D02*
X009110Y001214D01*
X008850Y001214D02*
X008110Y001214D01*
X008065Y001195D02*
X008221Y001259D01*
X008341Y001379D01*
X008405Y001535D01*
X008405Y001705D01*
X008341Y001861D01*
X008221Y001981D01*
X008065Y002045D01*
X007895Y002045D01*
X007739Y001981D01*
X007619Y001861D01*
X007555Y001705D01*
X007555Y001535D01*
X007619Y001379D01*
X007739Y001259D01*
X007895Y001195D01*
X008065Y001195D01*
X007850Y001214D02*
X007101Y001214D01*
X007079Y001206D02*
X007143Y001227D01*
X007202Y001257D01*
X007256Y001297D01*
X007303Y001344D01*
X007343Y001398D01*
X007373Y001457D01*
X007394Y001521D01*
X007401Y001570D01*
X007030Y001570D01*
X007030Y001670D01*
X007401Y001670D01*
X007394Y001719D01*
X007373Y001783D01*
X007343Y001842D01*
X007303Y001896D01*
X007256Y001943D01*
X007202Y001983D01*
X007143Y002013D01*
X007079Y002034D01*
X007030Y002041D01*
X007030Y001670D01*
X006930Y001670D01*
X006930Y002041D01*
X006881Y002034D01*
X006817Y002013D01*
X006758Y001983D01*
X006704Y001943D01*
X006657Y001896D01*
X006617Y001842D01*
X006587Y001783D01*
X006566Y001719D01*
X006559Y001670D01*
X006930Y001670D01*
X006930Y001570D01*
X007030Y001570D01*
X007030Y001199D01*
X007079Y001206D01*
X007030Y001214D02*
X006930Y001214D01*
X006930Y001199D02*
X006930Y001570D01*
X006559Y001570D01*
X006566Y001521D01*
X006587Y001457D01*
X006617Y001398D01*
X006657Y001344D01*
X006704Y001297D01*
X006758Y001257D01*
X006817Y001227D01*
X006881Y001206D01*
X006930Y001199D01*
X006859Y001214D02*
X005859Y001214D01*
X005957Y001312D02*
X006688Y001312D01*
X006611Y001411D02*
X006056Y001411D01*
X006117Y001509D02*
X006570Y001509D01*
X006930Y001509D02*
X007030Y001509D01*
X007030Y001411D02*
X006930Y001411D01*
X006930Y001312D02*
X007030Y001312D01*
X007272Y001312D02*
X007687Y001312D01*
X007606Y001411D02*
X007349Y001411D01*
X007390Y001509D02*
X007566Y001509D01*
X007555Y001608D02*
X007030Y001608D01*
X007030Y001706D02*
X006930Y001706D01*
X006930Y001608D02*
X006158Y001608D01*
X006199Y001706D02*
X006564Y001706D01*
X006598Y001805D02*
X006218Y001805D01*
X006218Y001903D02*
X006663Y001903D01*
X006795Y002002D02*
X006218Y002002D01*
X006930Y002002D02*
X007030Y002002D01*
X007030Y001903D02*
X006930Y001903D01*
X006930Y001805D02*
X007030Y001805D01*
X007165Y002002D02*
X007790Y002002D01*
X007662Y001903D02*
X007297Y001903D01*
X007362Y001805D02*
X007596Y001805D01*
X007555Y001706D02*
X007396Y001706D01*
X008170Y002002D02*
X008790Y002002D01*
X008662Y001903D02*
X008298Y001903D01*
X008364Y001805D02*
X008596Y001805D01*
X008555Y001706D02*
X008405Y001706D01*
X008405Y001608D02*
X008555Y001608D01*
X008566Y001509D02*
X008394Y001509D01*
X008354Y001411D02*
X008606Y001411D01*
X008687Y001312D02*
X008273Y001312D01*
X010110Y001214D02*
X010612Y001214D01*
X010555Y001312D02*
X010273Y001312D01*
X010354Y001411D02*
X010555Y001411D01*
X010555Y001509D02*
X010394Y001509D01*
X010405Y001608D02*
X010555Y001608D01*
X010555Y001706D02*
X010405Y001706D01*
X010433Y001805D02*
X010555Y001805D01*
X010555Y001903D02*
X010532Y001903D01*
X010729Y002100D02*
X011747Y002100D01*
X011742Y002002D02*
X011373Y002002D01*
X011405Y001903D02*
X011742Y001903D01*
X011742Y001805D02*
X011405Y001805D01*
X011405Y001706D02*
X011761Y001706D01*
X011802Y001608D02*
X011405Y001608D01*
X011405Y001509D02*
X011843Y001509D01*
X011904Y001411D02*
X011405Y001411D01*
X011405Y001312D02*
X012003Y001312D01*
X012101Y001214D02*
X011348Y001214D01*
X012333Y001115D02*
X005627Y001115D01*
X005133Y001115D02*
X004104Y001115D01*
X004070Y001081D02*
X004184Y001195D01*
X004246Y001344D01*
X004246Y002056D01*
X004184Y002205D01*
X004070Y002319D01*
X003921Y002381D01*
X003759Y002381D01*
X003610Y002319D01*
X003496Y002205D01*
X003434Y002056D01*
X003434Y001344D01*
X003496Y001195D01*
X003610Y001081D01*
X003759Y001019D01*
X003921Y001019D01*
X004070Y001081D01*
X004192Y001214D02*
X004901Y001214D01*
X004803Y001312D02*
X004232Y001312D01*
X004246Y001411D02*
X004704Y001411D01*
X004643Y001509D02*
X004246Y001509D01*
X004246Y001608D02*
X004602Y001608D01*
X004561Y001706D02*
X004246Y001706D01*
X004246Y001805D02*
X004542Y001805D01*
X004542Y001903D02*
X004246Y001903D01*
X004246Y002002D02*
X004542Y002002D01*
X004547Y002100D02*
X004227Y002100D01*
X004187Y002199D02*
X004588Y002199D01*
X004629Y002297D02*
X004092Y002297D01*
X003588Y002297D02*
X003087Y002297D01*
X003098Y002290D02*
X003032Y002334D01*
X002958Y002364D01*
X002888Y002378D01*
X002888Y001748D01*
X003244Y001748D01*
X003244Y002015D01*
X003229Y002094D01*
X003198Y002167D01*
X003154Y002233D01*
X003098Y002290D01*
X003177Y002199D02*
X003493Y002199D01*
X003453Y002100D02*
X003226Y002100D01*
X003244Y002002D02*
X003434Y002002D01*
X003434Y001903D02*
X003244Y001903D01*
X003244Y001805D02*
X003434Y001805D01*
X003434Y001706D02*
X002888Y001706D01*
X002888Y001748D02*
X002888Y001652D01*
X003244Y001652D01*
X003244Y001385D01*
X003229Y001306D01*
X003198Y001233D01*
X003154Y001167D01*
X003098Y001110D01*
X003032Y001066D01*
X002958Y001036D01*
X002888Y001022D01*
X002888Y001652D01*
X002792Y001652D01*
X002792Y001022D01*
X002722Y001036D01*
X002648Y001066D01*
X002582Y001110D01*
X002526Y001167D01*
X002482Y001233D01*
X002451Y001306D01*
X002436Y001385D01*
X002436Y001652D01*
X002792Y001652D01*
X002792Y001748D01*
X002436Y001748D01*
X002436Y002015D01*
X002451Y002094D01*
X002482Y002167D01*
X002526Y002233D01*
X002582Y002290D01*
X002648Y002334D01*
X002722Y002364D01*
X002792Y002378D01*
X002792Y001748D01*
X002888Y001748D01*
X002888Y001805D02*
X002792Y001805D01*
X002792Y001903D02*
X002888Y001903D01*
X002888Y002002D02*
X002792Y002002D01*
X002792Y002100D02*
X002888Y002100D01*
X002888Y002199D02*
X002792Y002199D01*
X002792Y002297D02*
X002888Y002297D01*
X002593Y002297D02*
X000398Y002297D01*
X000398Y002199D02*
X002503Y002199D01*
X002454Y002100D02*
X000398Y002100D01*
X000398Y002002D02*
X002436Y002002D01*
X002436Y001903D02*
X000398Y001903D01*
X000398Y001805D02*
X002436Y001805D01*
X002792Y001706D02*
X000398Y001706D01*
X000398Y001608D02*
X002436Y001608D01*
X002436Y001509D02*
X000398Y001509D01*
X000398Y001411D02*
X002436Y001411D01*
X002450Y001312D02*
X000398Y001312D01*
X000398Y001214D02*
X002495Y001214D01*
X002578Y001115D02*
X000398Y001115D01*
X000398Y001017D02*
X029082Y001017D01*
X029082Y000918D02*
X000398Y000918D01*
X000398Y000820D02*
X029082Y000820D01*
X029082Y000721D02*
X000398Y000721D01*
X000398Y000623D02*
X029082Y000623D01*
X029082Y000524D02*
X000398Y000524D01*
X000398Y000426D02*
X029082Y000426D01*
X027810Y002790D02*
X019818Y002790D01*
X019917Y002888D02*
X027822Y002888D01*
X027863Y002987D02*
X021315Y002987D01*
X021414Y003085D02*
X027928Y003085D01*
X028026Y003184D02*
X021512Y003184D01*
X020980Y003300D02*
X023110Y005430D01*
X025150Y005430D01*
X025470Y005750D01*
X027025Y006139D02*
X023293Y006139D01*
X023720Y006237D02*
X027025Y006237D01*
X027025Y006336D02*
X023775Y006336D01*
X023784Y006434D02*
X027025Y006434D01*
X027025Y006730D02*
X019542Y006730D01*
X019574Y006653D02*
X019574Y006547D01*
X019534Y006450D01*
X019460Y006376D01*
X019384Y006345D01*
X021425Y006345D01*
X021452Y006350D01*
X021482Y006345D01*
X021513Y006345D01*
X021539Y006334D01*
X021590Y006324D01*
X021687Y006261D01*
X021752Y006166D01*
X021776Y006053D01*
X021754Y005940D01*
X021691Y005843D01*
X021755Y005942D02*
X022587Y005942D01*
X022685Y006040D02*
X021773Y006040D01*
X021758Y006139D02*
X022784Y006139D01*
X022882Y006237D02*
X021703Y006237D01*
X021535Y006336D02*
X022981Y006336D01*
X023079Y006434D02*
X019517Y006434D01*
X019568Y006533D02*
X023178Y006533D01*
X023195Y007518D02*
X020456Y007518D01*
X020555Y007616D02*
X023074Y007616D01*
X023036Y007715D02*
X020653Y007715D01*
X020313Y007912D02*
X019955Y007912D01*
X020013Y008010D02*
X020411Y008010D01*
X020510Y008109D02*
X020024Y008109D01*
X019997Y008207D02*
X020608Y008207D01*
X020707Y008306D02*
X019918Y008306D01*
X019602Y008306D02*
X019083Y008306D01*
X018985Y008404D02*
X020805Y008404D01*
X020904Y008503D02*
X018886Y008503D01*
X018788Y008601D02*
X021002Y008601D01*
X021101Y008700D02*
X018689Y008700D01*
X018591Y008798D02*
X021199Y008798D01*
X021082Y009263D02*
X020931Y009201D01*
X020769Y009201D01*
X020618Y009263D01*
X020503Y009378D01*
X020441Y009529D01*
X020441Y009691D01*
X020503Y009842D01*
X020618Y009957D01*
X020769Y010019D01*
X020931Y010019D01*
X021082Y009957D01*
X021197Y009842D01*
X021259Y009691D01*
X021259Y009529D01*
X021197Y009378D01*
X021082Y009263D01*
X021109Y009291D02*
X021591Y009291D01*
X021618Y009263D02*
X021769Y009201D01*
X021931Y009201D01*
X022082Y009263D01*
X022197Y009378D01*
X022259Y009529D01*
X022259Y009691D01*
X022197Y009842D01*
X022082Y009957D01*
X021931Y010019D01*
X021769Y010019D01*
X021618Y009957D01*
X021503Y009842D01*
X021441Y009691D01*
X021441Y009529D01*
X021503Y009378D01*
X021618Y009263D01*
X021499Y009389D02*
X021201Y009389D01*
X021242Y009488D02*
X021458Y009488D01*
X021441Y009586D02*
X021259Y009586D01*
X021259Y009685D02*
X021441Y009685D01*
X021479Y009783D02*
X021221Y009783D01*
X021157Y009882D02*
X021543Y009882D01*
X021675Y009980D02*
X021025Y009980D01*
X020675Y009980D02*
X020025Y009980D01*
X020082Y009957D02*
X019931Y010019D01*
X019769Y010019D01*
X019618Y009957D01*
X019503Y009842D01*
X019441Y009691D01*
X019441Y009529D01*
X019503Y009378D01*
X019618Y009263D01*
X019769Y009201D01*
X019931Y009201D01*
X020082Y009263D01*
X020197Y009378D01*
X020259Y009529D01*
X020259Y009691D01*
X020197Y009842D01*
X020082Y009957D01*
X020157Y009882D02*
X020543Y009882D01*
X020479Y009783D02*
X020221Y009783D01*
X020259Y009685D02*
X020441Y009685D01*
X020441Y009586D02*
X020259Y009586D01*
X020242Y009488D02*
X020458Y009488D01*
X020499Y009389D02*
X020201Y009389D01*
X020109Y009291D02*
X020591Y009291D01*
X019591Y009291D02*
X019109Y009291D01*
X019082Y009263D02*
X019197Y009378D01*
X019259Y009529D01*
X019259Y009691D01*
X019197Y009842D01*
X019082Y009957D01*
X018931Y010019D01*
X018769Y010019D01*
X018618Y009957D01*
X018503Y009842D01*
X018441Y009691D01*
X018441Y009529D01*
X018503Y009378D01*
X018618Y009263D01*
X018769Y009201D01*
X018931Y009201D01*
X019082Y009263D01*
X019201Y009389D02*
X019499Y009389D01*
X019458Y009488D02*
X019242Y009488D01*
X019259Y009586D02*
X019441Y009586D01*
X019441Y009685D02*
X019259Y009685D01*
X019221Y009783D02*
X019479Y009783D01*
X019543Y009882D02*
X019157Y009882D01*
X019025Y009980D02*
X019675Y009980D01*
X018675Y009980D02*
X018025Y009980D01*
X018157Y009882D02*
X018543Y009882D01*
X018479Y009783D02*
X018221Y009783D01*
X018259Y009685D02*
X018441Y009685D01*
X018441Y009586D02*
X018259Y009586D01*
X018242Y009488D02*
X018458Y009488D01*
X018499Y009389D02*
X018201Y009389D01*
X018109Y009291D02*
X018591Y009291D01*
X018295Y009094D02*
X024065Y009094D01*
X024163Y009192D02*
X018197Y009192D01*
X018394Y008995D02*
X023966Y008995D01*
X023868Y008897D02*
X018492Y008897D01*
X018152Y008700D02*
X016747Y008700D01*
X016837Y008601D02*
X018250Y008601D01*
X018349Y008503D02*
X017649Y008503D01*
X017391Y008503D02*
X016837Y008503D01*
X017458Y008010D02*
X015120Y008010D01*
X015120Y007912D02*
X018470Y007912D01*
X018371Y008010D02*
X017582Y008010D01*
X016734Y007715D02*
X018667Y007715D01*
X018568Y007813D02*
X016635Y007813D01*
X016225Y007813D02*
X015635Y007813D01*
X015599Y007849D02*
X015261Y007849D01*
X015021Y007609D01*
X015021Y007271D01*
X015261Y007031D01*
X015599Y007031D01*
X015839Y007271D01*
X015839Y007609D01*
X015599Y007849D01*
X015734Y007715D02*
X016126Y007715D01*
X016028Y007616D02*
X015832Y007616D01*
X015839Y007518D02*
X016021Y007518D01*
X016021Y007419D02*
X015839Y007419D01*
X015839Y007321D02*
X016021Y007321D01*
X016070Y007222D02*
X015790Y007222D01*
X015692Y007124D02*
X016168Y007124D01*
X016692Y007124D02*
X018518Y007124D01*
X018419Y007222D02*
X016790Y007222D01*
X015168Y007124D02*
X014839Y007124D01*
X014839Y007222D02*
X015070Y007222D01*
X015021Y007321D02*
X014839Y007321D01*
X014839Y007419D02*
X015021Y007419D01*
X015021Y007518D02*
X014839Y007518D01*
X014875Y007616D02*
X015028Y007616D01*
X014973Y007715D02*
X015126Y007715D01*
X015072Y007813D02*
X015225Y007813D01*
X015183Y008109D02*
X015120Y008109D01*
X013500Y007419D02*
X013455Y007419D01*
X012361Y007025D02*
X010830Y007025D01*
X010830Y006927D02*
X012263Y006927D01*
X012164Y006828D02*
X010882Y006828D01*
X010981Y006730D02*
X012066Y006730D01*
X010700Y006190D02*
X010700Y006190D01*
X010653Y006237D02*
X010528Y006237D01*
X010554Y006336D02*
X010429Y006336D01*
X010456Y006434D02*
X010331Y006434D01*
X010333Y006533D02*
X010232Y006533D01*
X010261Y006631D02*
X010134Y006631D01*
X010035Y006730D02*
X010233Y006730D01*
X010236Y006828D02*
X009937Y006828D01*
X009624Y006631D02*
X008714Y006631D01*
X008812Y006533D02*
X009723Y006533D01*
X009821Y006434D02*
X008911Y006434D01*
X009009Y006336D02*
X009920Y006336D01*
X010018Y006237D02*
X009108Y006237D01*
X009206Y006139D02*
X010117Y006139D01*
X010215Y006040D02*
X009305Y006040D01*
X009403Y005942D02*
X010314Y005942D01*
X010412Y005843D02*
X009502Y005843D01*
X009600Y005745D02*
X010511Y005745D01*
X010609Y005646D02*
X009699Y005646D01*
X009797Y005548D02*
X010708Y005548D01*
X010806Y005449D02*
X009896Y005449D01*
X009994Y005351D02*
X010905Y005351D01*
X011003Y005252D02*
X010093Y005252D01*
X010191Y005154D02*
X011102Y005154D01*
X011200Y005055D02*
X010290Y005055D01*
X010388Y004957D02*
X011299Y004957D01*
X011397Y004858D02*
X010487Y004858D01*
X010585Y004760D02*
X011496Y004760D01*
X011594Y004661D02*
X010684Y004661D01*
X010782Y004563D02*
X011482Y004563D01*
X010760Y004381D02*
X010709Y004381D01*
X008320Y006770D01*
X007830Y006790D01*
X007376Y006631D02*
X007284Y006631D01*
X007272Y006533D02*
X007417Y006533D01*
X007350Y006730D02*
X007310Y006730D01*
X007310Y006828D02*
X007350Y006828D01*
X007367Y006927D02*
X007293Y006927D01*
X007252Y007025D02*
X007408Y007025D01*
X007485Y007124D02*
X007175Y007124D01*
X007041Y007222D02*
X007619Y007222D01*
X008041Y007222D02*
X009380Y007222D01*
X009380Y007124D02*
X008175Y007124D01*
X008252Y007025D02*
X009380Y007025D01*
X009380Y006927D02*
X008421Y006927D01*
X008517Y006828D02*
X009427Y006828D01*
X009526Y006730D02*
X008615Y006730D01*
X008430Y006270D02*
X010638Y004062D01*
X010980Y004062D01*
X015570Y004070D01*
X015230Y003760D02*
X010820Y003752D01*
X010258Y003752D01*
X008840Y005170D01*
X009033Y005351D02*
X009095Y005351D01*
X009092Y005252D02*
X009193Y005252D01*
X009111Y005154D02*
X009292Y005154D01*
X009210Y005055D02*
X009390Y005055D01*
X009308Y004957D02*
X009489Y004957D01*
X009407Y004858D02*
X009587Y004858D01*
X009505Y004760D02*
X009686Y004760D01*
X009604Y004661D02*
X009784Y004661D01*
X009702Y004563D02*
X009883Y004563D01*
X009801Y004464D02*
X009981Y004464D01*
X009899Y004366D02*
X010080Y004366D01*
X009998Y004267D02*
X010178Y004267D01*
X010096Y004169D02*
X010277Y004169D01*
X010195Y004070D02*
X010375Y004070D01*
X010293Y003972D02*
X010474Y003972D01*
X009981Y003775D02*
X005720Y003775D01*
X005750Y003676D02*
X010079Y003676D01*
X010178Y003578D02*
X005750Y003578D01*
X005680Y003873D02*
X009882Y003873D01*
X009784Y003972D02*
X005639Y003972D01*
X005560Y004070D02*
X009685Y004070D01*
X009587Y004169D02*
X005461Y004169D01*
X005394Y004235D02*
X005394Y004235D01*
X005318Y004267D02*
X009488Y004267D01*
X009390Y004366D02*
X002715Y004366D01*
X002695Y004414D02*
X002765Y004243D01*
X002765Y004059D01*
X002695Y003888D01*
X002564Y003757D01*
X002393Y003686D01*
X002208Y003686D01*
X002037Y003757D01*
X001907Y003888D01*
X001836Y004059D01*
X001836Y004243D01*
X001907Y004414D01*
X002037Y004545D01*
X002208Y004616D01*
X002393Y004616D01*
X002564Y004545D01*
X002695Y004414D01*
X002645Y004464D02*
X009291Y004464D01*
X009193Y004563D02*
X002521Y004563D01*
X002080Y004563D02*
X001420Y004563D01*
X001420Y004661D02*
X009094Y004661D01*
X008996Y004760D02*
X001420Y004760D01*
X001420Y004858D02*
X008897Y004858D01*
X008680Y004957D02*
X001420Y004957D01*
X001420Y005055D02*
X008602Y005055D01*
X008576Y005154D02*
X002572Y005154D01*
X002543Y005133D02*
X002603Y005176D01*
X002654Y005227D01*
X002697Y005286D01*
X002730Y005351D01*
X002753Y005420D01*
X002762Y005479D01*
X002351Y005479D01*
X002351Y005579D01*
X002762Y005579D01*
X002753Y005637D01*
X002730Y005707D01*
X002697Y005772D01*
X002654Y005831D01*
X002603Y005882D01*
X002543Y005925D01*
X002479Y005958D01*
X002409Y005981D01*
X002351Y005990D01*
X002351Y005579D01*
X002251Y005579D01*
X002251Y005990D01*
X002192Y005981D01*
X002123Y005958D01*
X002058Y005925D01*
X001999Y005882D01*
X001947Y005831D01*
X001904Y005772D01*
X001871Y005707D01*
X001849Y005637D01*
X001839Y005579D01*
X002251Y005579D01*
X002251Y005479D01*
X002351Y005479D01*
X002351Y005068D01*
X002409Y005077D01*
X002479Y005100D01*
X002543Y005133D01*
X002672Y005252D02*
X008588Y005252D01*
X008647Y005351D02*
X008022Y005351D01*
X008014Y005346D02*
X008081Y005381D01*
X008142Y005425D01*
X008195Y005478D01*
X008239Y005539D01*
X008274Y005606D01*
X008297Y005678D01*
X008307Y005740D01*
X007880Y005740D01*
X007880Y005313D01*
X007942Y005323D01*
X008014Y005346D01*
X007880Y005351D02*
X007780Y005351D01*
X007780Y005313D02*
X007780Y005740D01*
X007353Y005740D01*
X007363Y005678D01*
X007386Y005606D01*
X007421Y005539D01*
X007465Y005478D01*
X007518Y005425D01*
X007579Y005381D01*
X007646Y005346D01*
X007718Y005323D01*
X007780Y005313D01*
X007780Y005449D02*
X007880Y005449D01*
X007880Y005548D02*
X007780Y005548D01*
X007780Y005646D02*
X007880Y005646D01*
X007880Y005745D02*
X008701Y005745D01*
X008602Y005843D02*
X008306Y005843D01*
X008284Y005942D02*
X008504Y005942D01*
X008405Y006040D02*
X008240Y006040D01*
X008430Y006270D02*
X007280Y006270D01*
X006780Y006770D01*
X006830Y006790D01*
X006376Y006631D02*
X006316Y006631D01*
X006340Y006689D02*
X006262Y006501D01*
X006119Y006358D01*
X005931Y006280D01*
X005729Y006280D01*
X005541Y006358D01*
X005398Y006501D01*
X005320Y006689D01*
X005320Y006891D01*
X005398Y007079D01*
X005541Y007222D01*
X000398Y007222D01*
X000398Y007124D02*
X005442Y007124D01*
X005375Y007025D02*
X000398Y007025D01*
X000398Y006927D02*
X005335Y006927D01*
X005320Y006828D02*
X000398Y006828D01*
X000398Y006730D02*
X005320Y006730D01*
X005344Y006631D02*
X000398Y006631D01*
X000398Y006533D02*
X005385Y006533D01*
X005465Y006434D02*
X000398Y006434D01*
X000398Y006336D02*
X005595Y006336D01*
X005646Y006234D02*
X005579Y006199D01*
X005518Y006155D01*
X005465Y006102D01*
X005421Y006041D01*
X005386Y005974D01*
X005363Y005902D01*
X005353Y005840D01*
X005780Y005840D01*
X005780Y006267D01*
X005718Y006257D01*
X005646Y006234D01*
X005657Y006237D02*
X000398Y006237D01*
X000398Y006139D02*
X005501Y006139D01*
X005420Y006040D02*
X000398Y006040D01*
X000398Y005942D02*
X002090Y005942D01*
X002251Y005942D02*
X002351Y005942D01*
X002351Y005843D02*
X002251Y005843D01*
X002251Y005745D02*
X002351Y005745D01*
X002351Y005646D02*
X002251Y005646D01*
X002251Y005548D02*
X001474Y005548D01*
X001474Y005507D02*
X001474Y005613D01*
X001434Y005710D01*
X001360Y005784D01*
X001263Y005824D01*
X001157Y005824D01*
X001060Y005784D01*
X000986Y005710D01*
X000946Y005613D01*
X000946Y005507D01*
X000986Y005410D01*
X001000Y005397D01*
X001000Y003653D01*
X001123Y003530D01*
X001396Y003257D01*
X001396Y003237D01*
X001436Y003140D01*
X001510Y003066D01*
X001607Y003026D01*
X001713Y003026D01*
X001810Y003066D01*
X001884Y003140D01*
X001924Y003237D01*
X001924Y003343D01*
X001884Y003440D01*
X001810Y003514D01*
X001713Y003554D01*
X001693Y003554D01*
X001420Y003827D01*
X001420Y005397D01*
X001434Y005410D01*
X001474Y005507D01*
X001450Y005449D02*
X001844Y005449D01*
X001849Y005420D02*
X001871Y005351D01*
X001904Y005286D01*
X001947Y005227D01*
X001999Y005176D01*
X002058Y005133D01*
X002123Y005100D01*
X002192Y005077D01*
X002251Y005068D01*
X002251Y005479D01*
X001839Y005479D01*
X001849Y005420D01*
X001871Y005351D02*
X001420Y005351D01*
X001420Y005252D02*
X001929Y005252D01*
X002029Y005154D02*
X001420Y005154D01*
X001000Y005154D02*
X000398Y005154D01*
X000398Y005252D02*
X001000Y005252D01*
X001000Y005351D02*
X000398Y005351D01*
X000398Y005449D02*
X000970Y005449D01*
X000946Y005548D02*
X000398Y005548D01*
X000398Y005646D02*
X000960Y005646D01*
X001021Y005745D02*
X000398Y005745D01*
X000398Y005843D02*
X001959Y005843D01*
X001890Y005745D02*
X001399Y005745D01*
X001460Y005646D02*
X001851Y005646D01*
X002351Y005548D02*
X005416Y005548D01*
X005421Y005539D02*
X005465Y005478D01*
X005518Y005425D01*
X005579Y005381D01*
X005646Y005346D01*
X005718Y005323D01*
X005780Y005313D01*
X005780Y005740D01*
X005880Y005740D01*
X005880Y005840D01*
X006307Y005840D01*
X006297Y005902D01*
X006274Y005974D01*
X006239Y006041D01*
X006195Y006102D01*
X006142Y006155D01*
X006081Y006199D01*
X006014Y006234D01*
X005942Y006257D01*
X005880Y006267D01*
X005880Y005840D01*
X005780Y005840D01*
X005780Y005740D01*
X005353Y005740D01*
X005363Y005678D01*
X005386Y005606D01*
X005421Y005539D01*
X005494Y005449D02*
X002757Y005449D01*
X002730Y005351D02*
X005638Y005351D01*
X005780Y005351D02*
X005880Y005351D01*
X005880Y005313D02*
X005942Y005323D01*
X006014Y005346D01*
X006081Y005381D01*
X006142Y005425D01*
X006195Y005478D01*
X006239Y005539D01*
X006274Y005606D01*
X006297Y005678D01*
X006307Y005740D01*
X005880Y005740D01*
X005880Y005313D01*
X005880Y005449D02*
X005780Y005449D01*
X005780Y005548D02*
X005880Y005548D01*
X005880Y005646D02*
X005780Y005646D01*
X005780Y005745D02*
X002711Y005745D01*
X002750Y005646D02*
X005373Y005646D01*
X005880Y005745D02*
X006780Y005745D01*
X006780Y005740D02*
X006353Y005740D01*
X006363Y005678D01*
X006386Y005606D01*
X006421Y005539D01*
X006465Y005478D01*
X006518Y005425D01*
X006579Y005381D01*
X006646Y005346D01*
X006718Y005323D01*
X006780Y005313D01*
X006780Y005740D01*
X006880Y005740D01*
X006880Y005840D01*
X006780Y005840D01*
X006780Y006267D01*
X006718Y006257D01*
X006646Y006234D01*
X006579Y006199D01*
X006518Y006155D01*
X006465Y006102D01*
X006421Y006041D01*
X006386Y005974D01*
X006363Y005902D01*
X006353Y005840D01*
X006780Y005840D01*
X006780Y005740D01*
X006780Y005646D02*
X006880Y005646D01*
X006880Y005740D02*
X006880Y005313D01*
X006942Y005323D01*
X007014Y005346D01*
X007081Y005381D01*
X007142Y005425D01*
X007195Y005478D01*
X007239Y005539D01*
X007274Y005606D01*
X007297Y005678D01*
X007307Y005740D01*
X006880Y005740D01*
X006880Y005745D02*
X007780Y005745D01*
X007373Y005646D02*
X007287Y005646D01*
X007244Y005548D02*
X007416Y005548D01*
X007494Y005449D02*
X007166Y005449D01*
X007022Y005351D02*
X007638Y005351D01*
X008166Y005449D02*
X008996Y005449D01*
X008898Y005548D02*
X008244Y005548D01*
X008287Y005646D02*
X008799Y005646D01*
X007420Y006040D02*
X007240Y006040D01*
X007284Y005942D02*
X007376Y005942D01*
X007354Y005843D02*
X007306Y005843D01*
X006880Y005843D02*
X006780Y005843D01*
X006780Y005942D02*
X006880Y005942D01*
X006880Y006040D02*
X006780Y006040D01*
X006780Y006139D02*
X006880Y006139D01*
X006880Y006237D02*
X006780Y006237D01*
X006657Y006237D02*
X006003Y006237D01*
X006065Y006336D02*
X006673Y006336D01*
X006507Y006434D02*
X006195Y006434D01*
X006275Y006533D02*
X006417Y006533D01*
X006340Y006689D02*
X006340Y006891D01*
X006262Y007079D01*
X006119Y007222D01*
X006619Y007222D01*
X006485Y007124D02*
X006218Y007124D01*
X006285Y007025D02*
X006408Y007025D01*
X006367Y006927D02*
X006325Y006927D01*
X006340Y006828D02*
X006350Y006828D01*
X006340Y006730D02*
X006350Y006730D01*
X005880Y006237D02*
X005780Y006237D01*
X005780Y006139D02*
X005880Y006139D01*
X005880Y006040D02*
X005780Y006040D01*
X005780Y005942D02*
X005880Y005942D01*
X005880Y005843D02*
X005780Y005843D01*
X005376Y005942D02*
X002512Y005942D01*
X002642Y005843D02*
X005354Y005843D01*
X006159Y006139D02*
X006501Y006139D01*
X006420Y006040D02*
X006240Y006040D01*
X006284Y005942D02*
X006376Y005942D01*
X006354Y005843D02*
X006306Y005843D01*
X006287Y005646D02*
X006373Y005646D01*
X006416Y005548D02*
X006244Y005548D01*
X006166Y005449D02*
X006494Y005449D01*
X006638Y005351D02*
X006022Y005351D01*
X006780Y005351D02*
X006880Y005351D01*
X006880Y005449D02*
X006780Y005449D01*
X006780Y005548D02*
X006880Y005548D01*
X007100Y006195D02*
X007100Y006195D01*
X007058Y006237D02*
X007003Y006237D01*
X006119Y007222D02*
X005931Y007300D01*
X005729Y007300D01*
X005541Y007222D01*
X002725Y008388D02*
X002795Y008559D01*
X002795Y008743D01*
X002725Y008914D01*
X002594Y009045D01*
X002423Y009116D01*
X002238Y009116D01*
X002067Y009045D01*
X001937Y008914D01*
X001866Y008743D01*
X001866Y008559D01*
X001937Y008388D01*
X002067Y008257D01*
X002238Y008186D01*
X002423Y008186D01*
X002594Y008257D01*
X002725Y008388D01*
X002731Y008404D02*
X009380Y008404D01*
X009380Y008306D02*
X002642Y008306D01*
X002473Y008207D02*
X009380Y008207D01*
X009380Y008109D02*
X000398Y008109D01*
X000398Y008207D02*
X002188Y008207D01*
X002019Y008306D02*
X000398Y008306D01*
X000398Y008404D02*
X001930Y008404D01*
X001889Y008503D02*
X000398Y008503D01*
X000398Y008601D02*
X001866Y008601D01*
X001866Y008700D02*
X000398Y008700D01*
X000398Y008798D02*
X001889Y008798D01*
X001929Y008897D02*
X000398Y008897D01*
X000398Y008995D02*
X002018Y008995D01*
X002185Y009094D02*
X000398Y009094D01*
X000398Y009192D02*
X009043Y009192D01*
X008945Y009291D02*
X000398Y009291D01*
X000398Y009389D02*
X006336Y009389D01*
X006238Y009488D02*
X000398Y009488D01*
X000398Y009586D02*
X002194Y009586D01*
X002281Y009586D02*
X002381Y009586D01*
X002467Y009586D02*
X006139Y009586D01*
X006041Y009685D02*
X002642Y009685D01*
X002725Y009783D02*
X005942Y009783D01*
X005844Y009882D02*
X002770Y009882D01*
X002381Y009882D02*
X002281Y009882D01*
X002281Y009980D02*
X000398Y009980D01*
X000398Y009882D02*
X001891Y009882D01*
X001937Y009783D02*
X000398Y009783D01*
X000398Y009685D02*
X002020Y009685D01*
X002281Y009685D02*
X002381Y009685D01*
X002381Y009783D02*
X002281Y009783D01*
X002381Y009980D02*
X005745Y009980D01*
X006353Y009882D02*
X010061Y009882D01*
X010160Y009783D02*
X006452Y009783D01*
X005676Y010670D02*
X011161Y010670D01*
X010804Y010374D02*
X010163Y010374D01*
X010261Y010276D02*
X010705Y010276D01*
X010607Y010177D02*
X010360Y010177D01*
X010458Y010079D02*
X010508Y010079D01*
X011033Y009783D02*
X011481Y009783D01*
X011449Y009685D02*
X011130Y009685D01*
X011132Y009882D02*
X011545Y009882D01*
X011800Y009882D02*
X011900Y009882D01*
X011900Y009783D02*
X011800Y009783D01*
X011800Y009685D02*
X011900Y009685D01*
X011900Y009389D02*
X011800Y009389D01*
X011800Y009291D02*
X011900Y009291D01*
X012104Y009291D02*
X012591Y009291D01*
X012499Y009389D02*
X012193Y009389D01*
X013109Y009291D02*
X013591Y009291D01*
X013499Y009389D02*
X013201Y009389D01*
X013242Y009488D02*
X013458Y009488D01*
X013441Y009586D02*
X013259Y009586D01*
X013259Y009685D02*
X013441Y009685D01*
X013479Y009783D02*
X013221Y009783D01*
X013157Y009882D02*
X013543Y009882D01*
X013675Y009980D02*
X013025Y009980D01*
X016025Y009980D02*
X016675Y009980D01*
X016543Y009882D02*
X016157Y009882D01*
X016221Y009783D02*
X016479Y009783D01*
X016441Y009685D02*
X016259Y009685D01*
X016259Y009586D02*
X016441Y009586D01*
X016458Y009488D02*
X016242Y009488D01*
X016340Y009389D02*
X016499Y009389D01*
X017201Y009389D02*
X017499Y009389D01*
X017458Y009488D02*
X017242Y009488D01*
X017259Y009586D02*
X017441Y009586D01*
X017441Y009685D02*
X017259Y009685D01*
X017221Y009783D02*
X017479Y009783D01*
X017543Y009882D02*
X017157Y009882D01*
X017025Y009980D02*
X017675Y009980D01*
X021146Y008207D02*
X023478Y008207D01*
X023380Y008109D02*
X021047Y008109D01*
X020949Y008010D02*
X023214Y008010D01*
X022945Y009213D02*
X022900Y009205D01*
X022900Y009560D01*
X022900Y009660D01*
X022800Y009660D01*
X022800Y010015D01*
X022755Y010007D01*
X022694Y009988D01*
X022636Y009959D01*
X022585Y009921D01*
X022539Y009875D01*
X022501Y009824D01*
X022472Y009766D01*
X022453Y009705D01*
X022445Y009660D01*
X022800Y009660D01*
X022800Y009560D01*
X022445Y009560D01*
X022453Y009515D01*
X022472Y009454D01*
X022501Y009396D01*
X022539Y009345D01*
X022585Y009299D01*
X022636Y009261D01*
X022694Y009232D01*
X022755Y009213D01*
X022800Y009205D01*
X022800Y009560D01*
X022900Y009560D01*
X023255Y009560D01*
X023247Y009515D01*
X023228Y009454D01*
X023199Y009396D01*
X023161Y009345D01*
X023115Y009299D01*
X023064Y009261D01*
X023006Y009232D01*
X022945Y009213D01*
X022900Y009291D02*
X022800Y009291D01*
X022800Y009389D02*
X022900Y009389D01*
X022900Y009488D02*
X022800Y009488D01*
X022800Y009586D02*
X022259Y009586D01*
X022259Y009685D02*
X022449Y009685D01*
X022481Y009783D02*
X022221Y009783D01*
X022157Y009882D02*
X022545Y009882D01*
X022679Y009980D02*
X022025Y009980D01*
X022800Y009980D02*
X022900Y009980D01*
X022900Y010015D02*
X022900Y009660D01*
X023255Y009660D01*
X023247Y009705D01*
X023228Y009766D01*
X023199Y009824D01*
X023161Y009875D01*
X023115Y009921D01*
X023064Y009959D01*
X023006Y009988D01*
X022945Y010007D01*
X022900Y010015D01*
X023021Y009980D02*
X023675Y009980D01*
X023618Y009957D02*
X023503Y009842D01*
X023441Y009691D01*
X023441Y009529D01*
X023503Y009378D01*
X023618Y009263D01*
X023769Y009201D01*
X023931Y009201D01*
X024082Y009263D01*
X024197Y009378D01*
X024259Y009529D01*
X024259Y009691D01*
X024197Y009842D01*
X024082Y009957D01*
X023931Y010019D01*
X023769Y010019D01*
X023618Y009957D01*
X023543Y009882D02*
X023155Y009882D01*
X023219Y009783D02*
X023479Y009783D01*
X023441Y009685D02*
X023251Y009685D01*
X023441Y009586D02*
X022900Y009586D01*
X022900Y009685D02*
X022800Y009685D01*
X022800Y009783D02*
X022900Y009783D01*
X022900Y009882D02*
X022800Y009882D01*
X022461Y009488D02*
X022242Y009488D01*
X022201Y009389D02*
X022507Y009389D01*
X022596Y009291D02*
X022109Y009291D01*
X023104Y009291D02*
X023591Y009291D01*
X023499Y009389D02*
X023193Y009389D01*
X023239Y009488D02*
X023458Y009488D01*
X024109Y009291D02*
X024262Y009291D01*
X024201Y009389D02*
X024360Y009389D01*
X024458Y009488D02*
X024242Y009488D01*
X024259Y009586D02*
X024441Y009586D01*
X024441Y009685D02*
X024259Y009685D01*
X024221Y009783D02*
X024479Y009783D01*
X024543Y009882D02*
X024157Y009882D01*
X024025Y009980D02*
X024675Y009980D01*
X026354Y008897D02*
X027967Y008897D01*
X027851Y008798D02*
X026452Y008798D01*
X026551Y008700D02*
X027778Y008700D01*
X027737Y008601D02*
X026649Y008601D01*
X026748Y008503D02*
X027720Y008503D01*
X027720Y008404D02*
X026846Y008404D01*
X026945Y008306D02*
X027743Y008306D01*
X027784Y008207D02*
X027043Y008207D01*
X027142Y008109D02*
X027864Y008109D01*
X028000Y008010D02*
X027240Y008010D01*
X027339Y007912D02*
X028004Y007912D01*
X027866Y007813D02*
X027437Y007813D01*
X027025Y007025D02*
X019154Y007025D01*
X019252Y006927D02*
X027025Y006927D01*
X027025Y006828D02*
X019450Y006828D01*
X019010Y006631D02*
X018774Y006631D01*
X018774Y006730D02*
X018912Y006730D01*
X018813Y006828D02*
X018735Y006828D01*
X018715Y006927D02*
X018605Y006927D01*
X018616Y007025D02*
X014938Y007025D01*
X015006Y006927D02*
X018415Y006927D01*
X018735Y006533D02*
X019052Y006533D01*
X019103Y006434D02*
X018606Y006434D01*
X018414Y006434D02*
X016791Y006434D01*
X014254Y005548D02*
X011217Y005548D01*
X011119Y005646D02*
X014155Y005646D01*
X014057Y005745D02*
X011020Y005745D01*
X010922Y005843D02*
X014040Y005843D01*
X014020Y005942D02*
X010823Y005942D01*
X010725Y006040D02*
X013921Y006040D01*
X014352Y005449D02*
X011316Y005449D01*
X011414Y005351D02*
X014451Y005351D01*
X014549Y005252D02*
X011513Y005252D01*
X011611Y005154D02*
X014648Y005154D01*
X014746Y005055D02*
X011710Y005055D01*
X011808Y004957D02*
X014816Y004957D01*
X015170Y004380D02*
X015210Y004390D01*
X010760Y004381D01*
X010895Y003572D02*
X010895Y003572D01*
X010881Y002790D02*
X005261Y002790D01*
X005051Y002691D02*
X000398Y002691D01*
X000398Y002593D02*
X004867Y002593D01*
X004769Y002494D02*
X000398Y002494D01*
X000398Y002396D02*
X004670Y002396D01*
X004599Y002790D02*
X000398Y002790D01*
X000398Y002888D02*
X004422Y002888D01*
X004466Y002845D02*
X004466Y002845D01*
X004324Y002987D02*
X000398Y002987D01*
X000398Y003085D02*
X001492Y003085D01*
X001418Y003184D02*
X000398Y003184D01*
X000398Y003282D02*
X001371Y003282D01*
X001273Y003381D02*
X000398Y003381D01*
X000398Y003479D02*
X001174Y003479D01*
X001076Y003578D02*
X000398Y003578D01*
X000398Y003676D02*
X001000Y003676D01*
X001000Y003775D02*
X000398Y003775D01*
X000398Y003873D02*
X001000Y003873D01*
X001000Y003972D02*
X000398Y003972D01*
X000398Y004070D02*
X001000Y004070D01*
X001000Y004169D02*
X000398Y004169D01*
X000398Y004267D02*
X001000Y004267D01*
X001000Y004366D02*
X000398Y004366D01*
X000398Y004464D02*
X001000Y004464D01*
X001000Y004563D02*
X000398Y004563D01*
X000398Y004661D02*
X001000Y004661D01*
X001000Y004760D02*
X000398Y004760D01*
X000398Y004858D02*
X001000Y004858D01*
X001000Y004957D02*
X000398Y004957D01*
X000398Y005055D02*
X001000Y005055D01*
X002251Y005154D02*
X002351Y005154D01*
X002351Y005252D02*
X002251Y005252D01*
X002251Y005351D02*
X002351Y005351D01*
X002351Y005449D02*
X002251Y005449D01*
X001957Y004464D02*
X001420Y004464D01*
X001420Y004366D02*
X001887Y004366D01*
X001846Y004267D02*
X001420Y004267D01*
X001420Y004169D02*
X001836Y004169D01*
X001836Y004070D02*
X001420Y004070D01*
X001420Y003972D02*
X001872Y003972D01*
X001922Y003873D02*
X001420Y003873D01*
X001472Y003775D02*
X002020Y003775D01*
X001571Y003676D02*
X004110Y003676D01*
X004110Y003578D02*
X001669Y003578D01*
X001844Y003479D02*
X004110Y003479D01*
X004110Y003381D02*
X001908Y003381D01*
X001924Y003282D02*
X004149Y003282D01*
X004190Y003184D02*
X001902Y003184D01*
X001828Y003085D02*
X004231Y003085D01*
X004140Y003775D02*
X002581Y003775D01*
X002680Y003873D02*
X004180Y003873D01*
X004221Y003972D02*
X002729Y003972D01*
X002765Y004070D02*
X004300Y004070D01*
X004235Y004004D02*
X004235Y004004D01*
X004399Y004169D02*
X002765Y004169D01*
X002756Y004267D02*
X004542Y004267D01*
X010626Y006139D02*
X010751Y006139D01*
X009380Y007321D02*
X000398Y007321D01*
X000398Y007419D02*
X009380Y007419D01*
X009380Y007518D02*
X000398Y007518D01*
X000398Y007616D02*
X009380Y007616D01*
X009380Y007715D02*
X000398Y007715D01*
X000398Y007813D02*
X009380Y007813D01*
X009380Y007912D02*
X000398Y007912D01*
X000398Y008010D02*
X009380Y008010D01*
X009380Y008503D02*
X002772Y008503D01*
X002795Y008601D02*
X009380Y008601D01*
X009380Y008700D02*
X002795Y008700D01*
X002773Y008798D02*
X009380Y008798D01*
X009339Y008897D02*
X002732Y008897D01*
X002644Y008995D02*
X009240Y008995D01*
X009142Y009094D02*
X002477Y009094D01*
X000398Y010670D02*
X005404Y010670D01*
X018563Y007616D02*
X018765Y007616D01*
X018864Y007518D02*
X018661Y007518D01*
X019760Y004390D02*
X021290Y004390D01*
X019296Y003479D02*
X019080Y003479D01*
X019080Y003381D02*
X019238Y003381D01*
X019226Y003282D02*
X019080Y003282D01*
X019155Y003184D02*
X019252Y003184D01*
X019254Y003085D02*
X019332Y003085D01*
X019490Y003300D02*
X020980Y003300D01*
X021081Y002691D02*
X019720Y002691D01*
X019110Y002691D02*
X019000Y002691D01*
X019000Y002593D02*
X020897Y002593D01*
X020799Y002494D02*
X019000Y002494D01*
X019000Y002396D02*
X020700Y002396D01*
X020659Y002297D02*
X019000Y002297D01*
X019000Y002199D02*
X020618Y002199D01*
X019012Y002790D02*
X019000Y002790D01*
X015039Y003578D02*
X013895Y003578D01*
X012067Y002593D02*
X011221Y002593D01*
X011123Y002494D02*
X011969Y002494D01*
X011870Y002396D02*
X011024Y002396D01*
X010926Y002297D02*
X011829Y002297D01*
X011788Y002199D02*
X010827Y002199D01*
X013157Y001312D02*
X013633Y001312D01*
X013731Y001214D02*
X013059Y001214D01*
X012827Y001115D02*
X013963Y001115D01*
X014457Y001115D02*
X021163Y001115D01*
X013534Y001411D02*
X013256Y001411D01*
X013317Y001509D02*
X013473Y001509D01*
X013432Y001608D02*
X013358Y001608D01*
X003576Y001115D02*
X003102Y001115D01*
X003185Y001214D02*
X003488Y001214D01*
X003448Y001312D02*
X003230Y001312D01*
X003244Y001411D02*
X003434Y001411D01*
X003434Y001509D02*
X003244Y001509D01*
X003244Y001608D02*
X003434Y001608D01*
X002888Y001608D02*
X002792Y001608D01*
X002792Y001509D02*
X002888Y001509D01*
X002888Y001411D02*
X002792Y001411D01*
X002792Y001312D02*
X002888Y001312D01*
X002888Y001214D02*
X002792Y001214D01*
X002792Y001115D02*
X002888Y001115D01*
X028170Y009685D02*
X028270Y009685D01*
X028270Y009783D02*
X028170Y009783D01*
X028170Y009882D02*
X028270Y009882D01*
X028714Y009389D02*
X029082Y009389D01*
X029082Y009291D02*
X028689Y009291D01*
M02*
