G75*
%MOIN*%
%OFA0B0*%
%FSLAX24Y24*%
%IPPOS*%
%LPD*%
%AMOC8*
5,1,8,0,0,1.08239X$1,22.5*
%
%ADD10R,0.0500X0.0220*%
%ADD11R,0.0220X0.0500*%
%ADD12R,0.0433X0.0394*%
%ADD13R,0.0394X0.0433*%
%ADD14R,0.0472X0.0217*%
%ADD15R,0.0551X0.0630*%
%ADD16R,0.0315X0.0315*%
%ADD17R,0.0276X0.0669*%
%ADD18R,0.0600X0.0300*%
%ADD19R,0.0236X0.0866*%
%ADD20R,0.0472X0.0315*%
%ADD21R,0.0256X0.0315*%
%ADD22R,0.0197X0.0315*%
%ADD23R,0.0197X0.0512*%
%ADD24R,0.0315X0.0354*%
D10*
X017280Y004478D03*
X017280Y004793D03*
X017280Y005108D03*
X017280Y005423D03*
X017280Y005737D03*
X017280Y006052D03*
X017280Y006367D03*
X017280Y006682D03*
X020660Y006682D03*
X020660Y006367D03*
X020660Y006052D03*
X020660Y005737D03*
X020660Y005423D03*
X020660Y005108D03*
X020660Y004793D03*
X020660Y004478D03*
D11*
X020072Y003890D03*
X019757Y003890D03*
X019442Y003890D03*
X019127Y003890D03*
X018813Y003890D03*
X018498Y003890D03*
X018183Y003890D03*
X017868Y003890D03*
X017868Y007270D03*
X018183Y007270D03*
X018498Y007270D03*
X018813Y007270D03*
X019127Y007270D03*
X019442Y007270D03*
X019757Y007270D03*
X020072Y007270D03*
D12*
X021475Y006050D03*
X022145Y006050D03*
X026755Y005200D03*
X027425Y005200D03*
X026985Y008560D03*
X026315Y008560D03*
X015670Y006065D03*
X015670Y005395D03*
X013925Y006640D03*
X013255Y006640D03*
X008815Y009020D03*
X008145Y009020D03*
X007575Y009010D03*
X006905Y009010D03*
X006105Y009010D03*
X005435Y009010D03*
X004895Y009710D03*
X004225Y009710D03*
X004215Y010440D03*
X004885Y010440D03*
X002375Y006840D03*
X001705Y006840D03*
X007335Y003630D03*
X008005Y003630D03*
X027655Y000690D03*
X028325Y000690D03*
D13*
X021625Y003800D03*
X020955Y003800D03*
X016675Y003710D03*
X016005Y003710D03*
X016005Y004290D03*
X016675Y004290D03*
X016665Y004870D03*
X015995Y004870D03*
X016450Y005695D03*
X016450Y006365D03*
X011935Y006700D03*
X011265Y006700D03*
X011235Y007990D03*
X011905Y007990D03*
X011800Y004585D03*
X011800Y003915D03*
X023305Y008560D03*
X023975Y008560D03*
X024905Y008560D03*
X025575Y008560D03*
X026050Y004585D03*
X026050Y003915D03*
D14*
X011112Y003916D03*
X010088Y003916D03*
X010088Y004290D03*
X010088Y004664D03*
X011112Y004664D03*
D15*
X011641Y005850D03*
X010539Y005850D03*
D16*
X011275Y007350D03*
X011865Y007350D03*
X011835Y008670D03*
X011245Y008670D03*
X000990Y007395D03*
X000990Y006805D03*
X023970Y007215D03*
X023970Y007805D03*
X025470Y007805D03*
X025470Y007215D03*
D17*
X021862Y007550D03*
X021390Y007550D03*
X020918Y007550D03*
D18*
X014580Y005510D03*
X012580Y005510D03*
X012580Y004010D03*
X014580Y004010D03*
D19*
X023970Y004366D03*
X024470Y004366D03*
X024970Y004366D03*
X025470Y004366D03*
X025470Y006414D03*
X024970Y006414D03*
X024470Y006414D03*
X023970Y006414D03*
D20*
X023410Y004544D03*
X023410Y003836D03*
D21*
X008092Y009725D03*
X007068Y009725D03*
X007068Y010315D03*
X008092Y010315D03*
D22*
X007737Y010315D03*
X007423Y010315D03*
X007423Y009725D03*
X007737Y009725D03*
D23*
X000946Y001389D03*
X001320Y001389D03*
X001694Y001389D03*
X001694Y002531D03*
X001320Y002531D03*
X000946Y002531D03*
D24*
X012466Y007986D03*
X013214Y007986D03*
X012840Y008813D03*
M02*
