%
M48
M72
T01C0.0150
T02C0.0236
T03C0.0250
T04C0.0394
T05C0.0400
T06C0.0402
T07C0.0433
T08C0.0472
T09C0.1200
T10C0.1340
%
T01
X1660Y3290
X1210Y5560
X6770Y8210
X9900Y9120
X11030Y9440
X8690Y10190
X5540Y10440
X12840Y7570
X12310Y7170
X14760Y6830
X16450Y6365
X15120Y5510
X15080Y4990
X15210Y4390
X15570Y4070
X15230Y3760
X18190Y4570
X18170Y5210
X19760Y4390
X20430Y3890
X19490Y3300
X22190Y3830
X26750Y4370
X25470Y5750
X24470Y5750
X23520Y6410
X21480Y6050
X19310Y6600
X18510Y6680
X19760Y8090
X17520Y8270
X23300Y7760
X8840Y5170
T02
X10540Y6760
T03
X13210Y7220
T04
X2840Y1700
X3840Y1700
T05
X14430Y7440
X15430Y7440
X16430Y7440
X16430Y8440
X15430Y8440
X14430Y8440
X14850Y9610
X15850Y9610
X16850Y9610
X17850Y9610
X18850Y9610
X19850Y9610
X20850Y9610
X21850Y9610
X22850Y9610
X23850Y9610
X24850Y9610
X25850Y9610
X26850Y9610
X28220Y9460
X28220Y8460
X28220Y7460
X28220Y6460
X28220Y5460
X28220Y4460
X28310Y2760
X28310Y1620
X13850Y9610
X12850Y9610
X11850Y9610
T06
X7830Y6790
X6830Y6790
X5830Y6790
X5830Y5790
X6830Y5790
X7830Y5790
T07
X2301Y5529
X2301Y4151
X6980Y1620
X7980Y1620
X8980Y1620
X9980Y1620
X10980Y1620
X15810Y1620
X16810Y1620
X17810Y1620
X18810Y1620
X19810Y1620
X2331Y8651
X2331Y10029
T08
X23410Y2210
X24858Y2210
X26306Y2210
T09
X4930Y3540
T10
X5380Y1920
X12580Y1920
X14210Y1920
X21410Y1920
M30
